<svg width="201" height="60" viewBox="0 0 201 60" fill="none" xmlns="http://www.w3.org/2000/svg">
<path d="M196.313 1H4.28163C2.46924 1 1 2.46751 1 4.27778V55.0833C1 56.8936 2.46924 58.3611 4.28163 58.3611H196.313C198.125 58.3611 199.595 56.8936 199.595 55.0833V4.27778C199.595 2.46751 198.125 1 196.313 1Z" stroke="#333333" stroke-width="2"/>
<path d="M47.4523 30.1072C47.4143 25.5698 51.1732 23.3581 51.3482 23.2593C49.2176 20.1584 45.9152 19.7327 44.751 19.7023C41.9737 19.4136 39.2876 21.3593 37.8723 21.3593C36.4341 21.3593 34.2578 19.7327 31.9066 19.7784C28.8857 19.8239 26.0627 21.5721 24.518 24.2778C21.3221 29.8032 23.7038 37.9203 26.7703 42.3893C28.2997 44.5782 30.088 47.0179 32.4316 46.9343C34.722 46.8431 35.5819 45.475 38.344 45.475C41.0833 45.475 41.8899 46.9343 44.2792 46.8811C46.737 46.8431 48.2893 44.6846 49.7655 42.4805C51.5385 39.9724 52.2461 37.5023 52.2766 37.3807C52.2157 37.3427 47.498 35.5415 47.4523 30.1072ZM42.94 16.761C44.1727 15.2182 45.0173 13.1281 44.7814 11C43.0009 11.076 40.7637 12.2312 39.4854 13.7361C38.3516 15.0662 37.3319 17.2398 37.5983 19.2843C39.5919 19.4287 41.654 18.2735 42.94 16.761Z" fill="#333333"/>
<path d="M80.6435 42.0159H77.4401L75.6823 36.5133H69.5873L67.9132 42.0159H64.7935L70.8352 23.2735H74.5637L80.6435 42.0159ZM75.1573 34.2028L73.5669 29.3082C73.3995 28.8066 73.0799 27.6285 72.6234 25.7741H72.5701C72.3875 26.5721 72.0831 27.7502 71.6798 29.3082L70.12 34.2028H75.1573ZM96.1516 35.0921C96.1516 37.3874 95.5273 39.2039 94.2794 40.5415C93.1604 41.7272 91.7682 42.32 90.1093 42.32C88.3134 42.32 87.0278 41.6815 86.2443 40.4047V47.4958H83.2384V32.9412C83.2384 31.4971 83.2006 30.015 83.1243 28.5026H85.7718L85.94 30.6459H85.9925C86.9975 29.0346 88.5193 28.2213 90.558 28.2213C92.1562 28.2213 93.4877 28.8522 94.5534 30.1138C95.6183 31.3755 96.1516 33.04 96.1516 35.0921ZM93.0923 35.206C93.0923 33.8912 92.7953 32.8044 92.2021 31.9532C91.5548 31.0639 90.6803 30.623 89.5842 30.623C88.8467 30.623 88.169 30.8739 87.5677 31.3603C86.9671 31.8543 86.5709 32.5004 86.3887 33.2907C86.3051 33.5872 86.2591 33.8988 86.2517 34.2028V36.4601C86.2517 37.4406 86.5561 38.269 87.1575 38.953C87.758 39.6295 88.5423 39.9714 89.5079 39.9714C90.6417 39.9714 91.5245 39.5307 92.1562 38.6643C92.7723 37.7826 93.0923 36.6349 93.0923 35.206ZM111.72 35.0921C111.72 37.3874 111.096 39.2039 109.847 40.5415C108.729 41.7272 107.337 42.32 105.678 42.32C103.882 42.32 102.596 41.6815 101.812 40.4047V47.4958H98.8064V32.9412C98.8064 31.4971 98.7687 30.015 98.6924 28.5026H101.341L101.508 30.6459H101.561C102.566 29.0346 104.087 28.2213 106.127 28.2213C107.725 28.2213 109.057 28.8522 110.121 30.1138C111.18 31.3755 111.72 33.04 111.72 35.0921ZM108.653 35.206C108.653 33.8912 108.357 32.8044 107.763 31.9532C107.116 31.0639 106.241 30.623 105.146 30.623C104.407 30.623 103.73 30.8739 103.121 31.3603C102.52 31.8543 102.124 32.5004 101.942 33.2907C101.85 33.6632 101.798 33.9672 101.798 34.2028V36.4601C101.798 37.4406 102.102 38.269 102.703 38.953C103.304 39.6295 104.087 39.9714 105.062 39.9714C106.195 39.9714 107.078 39.5307 107.71 38.6643C108.341 37.7826 108.653 36.6349 108.653 35.206ZM129.122 36.7641C129.122 38.3602 128.567 39.6599 127.456 40.6555C126.238 41.75 124.526 42.2972 122.342 42.2972C120.326 42.2972 118.705 41.9096 117.48 41.1267L118.172 38.6262C119.489 39.409 120.942 39.7966 122.517 39.7966C123.651 39.7966 124.534 39.5383 125.165 39.029C125.797 38.5198 126.116 37.8358 126.116 36.9846C126.116 36.2245 125.85 35.5861 125.333 35.0616C124.815 34.5448 123.955 34.0584 122.746 33.6176C119.459 32.3939 117.814 30.6003 117.814 28.2518C117.814 26.7165 118.393 25.4549 119.557 24.4744C120.714 23.494 122.251 23 124.169 23C125.873 23 127.296 23.2964 128.43 23.8892L127.677 26.3365C126.611 25.7589 125.416 25.4777 124.069 25.4777C123.012 25.4777 122.175 25.736 121.581 26.2529C121.079 26.7165 120.828 27.279 120.828 27.9478C120.828 28.685 121.117 29.3006 121.696 29.7794C122.198 30.2203 123.103 30.7067 124.42 31.2235C126.033 31.8771 127.22 32.6295 127.981 33.5036C128.741 34.3777 129.122 35.4645 129.122 36.7641ZM139.09 30.7599H135.772V37.319C135.772 38.991 136.358 39.8194 137.531 39.8194C138.07 39.8194 138.512 39.7739 138.869 39.6827L138.953 41.9628C138.36 42.1832 137.584 42.2972 136.617 42.2972C135.43 42.2972 134.502 41.9324 133.832 41.2104C133.163 40.4883 132.828 39.2722 132.828 37.5698V30.7599H130.857V28.5102H132.828V26.0325L135.781 25.1433V28.5102H139.097L139.09 30.7599ZM154.012 35.1529C154.012 37.2278 153.419 38.9379 152.231 40.2679C150.991 41.6435 149.34 42.3276 147.278 42.3276C145.292 42.3276 143.709 41.6664 142.529 40.3591C141.35 39.0442 140.765 37.3798 140.765 35.3809C140.765 33.2832 141.373 31.5731 142.591 30.2354C143.808 28.8978 145.444 28.2366 147.506 28.2366C149.492 28.2366 151.09 28.8978 152.292 30.2127C153.433 31.4819 154.012 33.1312 154.012 35.1529ZM150.893 35.2213C150.893 33.9824 150.626 32.9184 150.085 32.0368C149.454 30.9651 148.556 30.4255 147.384 30.4255C146.182 30.4255 145.254 30.9651 144.63 32.0368C144.09 32.9259 143.823 34.0052 143.823 35.2821C143.823 36.5209 144.09 37.585 144.63 38.4742C145.277 39.5458 146.19 40.0855 147.361 40.0855C148.511 40.0855 149.408 39.5383 150.063 38.4514C150.618 37.5318 150.893 36.4601 150.893 35.2213ZM163.79 31.1475C163.478 31.0943 163.158 31.0639 162.838 31.0639C161.781 31.0639 160.967 31.4591 160.389 32.2572C159.887 32.964 159.636 33.8532 159.636 34.9249V42.0159H156.63V32.7588C156.63 31.3375 156.607 29.9238 156.546 28.5026H159.164L159.27 31.0867H159.353C159.673 30.1974 160.168 29.483 160.86 28.9434C161.484 28.4722 162.253 28.2213 163.036 28.2213C163.318 28.2213 163.561 28.2442 163.79 28.2746V31.1475ZM177.236 34.6209C177.243 35.0769 177.205 35.5329 177.129 35.9813H168.105C168.135 37.319 168.576 38.3374 169.413 39.0442C170.174 39.675 171.156 39.9867 172.366 39.9867C173.705 39.9867 174.922 39.7739 176.018 39.3482L176.49 41.4307C175.211 41.9855 173.697 42.2668 171.955 42.2668C169.855 42.2668 168.211 41.6511 167.009 40.4199C165.814 39.1886 165.213 37.5318 165.213 35.4569C165.213 33.42 165.768 31.7251 166.887 30.3723C168.051 28.9282 169.634 28.2062 171.62 28.2062C173.568 28.2062 175.044 28.9282 176.049 30.3723C176.832 31.5199 177.236 32.9336 177.236 34.6209ZM174.367 33.8456C174.39 32.9564 174.192 32.1888 173.781 31.5351C173.263 30.6991 172.457 30.2811 171.384 30.2811C170.403 30.2811 169.604 30.6915 168.987 31.5047C168.485 32.1507 168.188 32.9336 168.096 33.8381L174.367 33.8456Z" fill="#333333"/>
</svg>
