<svg width="200" height="167" viewBox="0 0 200 167" fill="none" xmlns="http://www.w3.org/2000/svg">
<g clip-path="url(#clip0_1_354)">
<path d="M48.684 43.2089H20.463C19.2578 43.2089 18.2808 44.1859 18.2808 45.3911V100.371C18.2808 101.576 19.2578 102.553 20.463 102.553H48.684C49.8893 102.553 50.8663 101.576 50.8663 100.371V45.3911C50.8663 44.1859 49.8893 43.2089 48.684 43.2089Z" fill="url(#paint0_linear_1_354)"/>
<path d="M47.9335 44.1846H21.2139C20.0087 44.1846 19.0316 45.1616 19.0316 46.3668V98.9921C19.0316 100.197 20.0087 101.174 21.2139 101.174H47.9335C49.1388 101.174 50.1158 100.197 50.1158 98.9921V46.3668C50.1158 45.1616 49.1388 44.1846 47.9335 44.1846Z" fill="white"/>
<path d="M46.6948 48.1062L22.6288 48.1398L22.6936 94.5172L46.7595 94.4836L46.6948 48.1062Z" fill="#E6E6E6"/>
<path d="M34.7316 99.8078C35.791 99.8063 36.6486 98.9248 36.6471 97.8389C36.6456 96.753 35.7855 95.8739 34.7261 95.8754C33.6667 95.8769 32.8092 96.7584 32.8107 97.8443C32.8122 98.9302 33.6722 99.8093 34.7316 99.8078Z" fill="#DBDBDB"/>
<path d="M31.0152 46.3565C31.2273 46.3562 31.3991 46.1801 31.3988 45.9632C31.3985 45.7462 31.2262 45.5706 31.0141 45.5709C30.802 45.5712 30.6303 45.7473 30.6306 45.9642C30.6309 46.1812 30.8031 46.3568 31.0152 46.3565Z" fill="#DBDBDB"/>
<path d="M38.4708 45.6585L32.9584 45.6662C32.8379 45.6664 32.7403 45.7642 32.7405 45.8847L32.7407 46.0375C32.7409 46.158 32.8387 46.2556 32.9593 46.2554L38.4716 46.2477C38.5922 46.2475 38.6897 46.1497 38.6896 46.0292L38.6894 45.8764C38.6892 45.7559 38.5913 45.6583 38.4708 45.6585Z" fill="#DBDBDB"/>
<path d="M41.5065 75.0175H27.8805V89.3244H41.5065V75.0175Z" fill="url(#paint1_linear_1_354)"/>
<path d="M40.9154 75.6394H28.4743V88.7024H40.9154V75.6394Z" fill="#6C63FF"/>
<g opacity="0.5">
<path opacity="0.5" d="M35.6365 81.5601V81.3135H36.2912V80.05C36.4895 79.7489 36.6037 79.4003 36.6221 79.0403C36.6404 78.6802 36.5622 78.3218 36.3956 78.0021C36.2289 77.6825 35.9799 77.4131 35.6742 77.222C35.3685 77.0309 35.0173 76.9249 34.657 76.9151C34.2966 76.9052 33.9401 76.9919 33.6245 77.166C33.3088 77.3402 33.0454 77.5955 32.8616 77.9057C32.6777 78.2158 32.5801 78.5694 32.5788 78.9299C32.5775 79.2904 32.6725 79.6447 32.8541 79.9562V81.3135H33.5764V81.6038C32.6917 81.8478 31.9114 82.3752 31.3553 83.1052C30.7991 83.8353 30.4977 84.7276 30.4973 85.6453V89.3246H38.8968V85.6453C38.8963 84.6958 38.5735 83.7746 37.9812 83.0324C37.389 82.2903 36.5623 81.7712 35.6365 81.5601Z" fill="url(#paint2_linear_1_354)"/>
</g>
<path d="M36.1446 78.9977H33.0349V81.4855H36.1446V78.9977Z" fill="#F55F44"/>
<path d="M33.7073 81.6166H35.6714C36.4157 81.6166 37.1295 81.9122 37.6558 82.4385C38.1821 82.9648 38.4778 83.6787 38.4778 84.423V88.7395H30.901V84.4186C30.9021 83.6751 31.1983 82.9624 31.7245 82.437C32.2506 81.9116 32.9638 81.6166 33.7073 81.6166Z" fill="#FDD835"/>
<path d="M34.8571 80.3729H34.3748C33.9951 80.3729 33.6874 80.6807 33.6874 81.0603V82.0074C33.6874 82.3871 33.9951 82.6948 34.3748 82.6948H34.8571C35.2367 82.6948 35.5445 82.3871 35.5445 82.0074V81.0603C35.5445 80.6807 35.2367 80.3729 34.8571 80.3729Z" fill="#FDA57D"/>
<path d="M34.2612 82.6245L34.6082 83.1308L34.9727 82.6245H34.2612Z" fill="#FDA57D"/>
<path opacity="0.1" d="M32.3281 84.4532C32.3281 84.4532 31.9593 88.1238 32.1971 88.3617L32.3281 84.4532Z" fill="black"/>
<path opacity="0.1" d="M36.8892 84.4532C36.8892 84.4532 37.258 88.1238 37.0201 88.3617L36.8892 84.4532Z" fill="black"/>
<path opacity="0.05" d="M34.6171 81.5006C34.947 81.5009 35.2683 81.3954 35.5336 81.1994C35.4989 80.9812 35.3876 80.7826 35.2196 80.639C35.0517 80.4954 34.8381 80.4164 34.6171 80.416C34.3962 80.4164 34.1825 80.4954 34.0146 80.639C33.8466 80.7826 33.7353 80.9812 33.7006 81.1994C33.9659 81.3954 34.2872 81.5009 34.6171 81.5006Z" fill="black"/>
<path d="M34.6171 81.1672C35.6283 81.1672 36.448 80.3475 36.448 79.3363C36.448 78.3251 35.6283 77.5054 34.6171 77.5054C33.6059 77.5054 32.7862 78.3251 32.7862 79.3363C32.7862 80.3475 33.6059 81.1672 34.6171 81.1672Z" fill="#F55F44"/>
<path d="M34.6172 81.4552C35.4717 81.4552 36.1644 80.7625 36.1644 79.9079C36.1644 79.0534 35.4717 78.3607 34.6172 78.3607C33.7627 78.3607 33.07 79.0534 33.07 79.9079C33.07 80.7625 33.7627 81.4552 34.6172 81.4552Z" fill="#FDA57D"/>
<path d="M33.0657 80.0043C33.126 80.0043 33.1748 79.9163 33.1748 79.8079C33.1748 79.6994 33.126 79.6115 33.0657 79.6115C33.0055 79.6115 32.9566 79.6994 32.9566 79.8079C32.9566 79.9163 33.0055 80.0043 33.0657 80.0043Z" fill="#FDA57D"/>
<path d="M36.171 80.0043C36.2312 80.0043 36.2801 79.9163 36.2801 79.8079C36.2801 79.6994 36.2312 79.6115 36.171 79.6115C36.1107 79.6115 36.0619 79.6994 36.0619 79.8079C36.0619 79.9163 36.1107 80.0043 36.171 80.0043Z" fill="#FDA57D"/>
<path d="M45.1945 51.1213H24.1924V52.0335H45.1945V51.1213Z" fill="white"/>
<path d="M45.1945 52.9458H24.1924V53.858H45.1945V52.9458Z" fill="white"/>
<path d="M36.0639 54.7723H24.1924V55.6845H36.0639V54.7723Z" fill="white"/>
<path d="M41.5414 56.5989H24.1924V57.5111H41.5414V56.5989Z" fill="white"/>
<path d="M38.8027 58.4255H24.1924V59.3377H38.8027V58.4255Z" fill="white"/>
<path d="M45.1945 60.2521H24.1924V61.1643H45.1945V60.2521Z" fill="white"/>
<path d="M43.3703 62.991H25.1069V70.295H43.3703V62.991Z" fill="white"/>
<path d="M153.952 99.7578C153.952 99.7578 157.007 120.749 174.943 127.721L138.652 127.772L102.361 127.822C120.269 120.799 123.278 99.7993 123.278 99.7993L153.952 99.7578Z" fill="#E0E0E0"/>
<path d="M175.267 127.717L102 127.819L102.006 132.254L175.273 132.151L175.267 127.717Z" fill="url(#paint3_linear_1_354)"/>
<path d="M174.948 127.717L102.366 127.818L102.371 131.24L174.953 131.139L174.948 127.717Z" fill="#F5F5F5"/>
<path d="M197.547 24.2231L79.5084 24.3868C78.8663 24.4023 78.2566 24.6721 77.8134 25.137C77.3702 25.6019 77.1298 26.2237 77.1451 26.8659L77.2367 95.7337V98.0273C77.2367 103.265 81.3023 107.496 86.304 107.49L190.968 107.346C195.967 107.346 200.015 103.092 200.009 97.8592V95.5679L199.917 26.7C199.924 26.3817 199.869 26.0651 199.753 25.7683C199.638 25.4715 199.466 25.2003 199.245 24.9703C199.025 24.7402 198.762 24.5558 198.471 24.4276C198.179 24.2994 197.865 24.2299 197.547 24.2231Z" fill="url(#paint4_linear_1_354)"/>
<path d="M80.9095 26.5298H196.022C196.644 26.5298 197.241 26.7769 197.681 27.2169C198.12 27.6568 198.368 28.2535 198.368 28.8757V94.4134H78.5614V28.8757C78.5614 28.5675 78.6222 28.2622 78.7402 27.9775C78.8582 27.6927 79.0312 27.434 79.2493 27.2161C79.4674 26.9983 79.7263 26.8255 80.0111 26.7077C80.296 26.59 80.6013 26.5295 80.9095 26.5298Z" fill="white"/>
<path d="M190.165 105.307L87.0832 105.449C85.985 105.45 84.8973 105.235 83.8822 104.816C82.8671 104.397 81.9444 103.783 81.1669 103.007C80.3893 102.232 79.7721 101.311 79.3506 100.297C78.929 99.2826 78.7113 98.1955 78.7098 97.0973V94.2603L198.516 94.0945V96.9314C198.518 98.0298 198.303 99.1177 197.884 100.133C197.465 101.148 196.851 102.071 196.075 102.849C195.3 103.627 194.379 104.244 193.364 104.666C192.35 105.088 191.263 105.306 190.165 105.307Z" fill="#F5F5F5"/>
<path d="M192.897 32.0291H84.4798V86.83H192.897V32.0291Z" fill="#E6E6E6"/>
<path d="M183.563 35.6428H164.372V55.7938H183.563V35.6428Z" fill="url(#paint5_linear_1_354)"/>
<path d="M182.73 36.5205H165.206V54.9192H182.73V36.5205Z" fill="#6C63FF"/>
<g opacity="0.5">
<path opacity="0.5" d="M175.166 44.7015L174.948 44.6229L174.935 44.6426H174.921V44.049C174.921 43.9759 174.916 43.9029 174.904 43.8308C175.257 43.5706 175.528 43.2136 175.683 42.8029C175.989 42.4068 176.177 41.9329 176.227 41.435C176.277 40.9372 176.187 40.4353 175.966 39.9862C175.745 39.5372 175.403 39.1589 174.978 38.8944C174.554 38.6299 174.063 38.4897 173.563 38.4897C173.063 38.4897 172.572 38.6299 172.148 38.8944C171.723 39.1589 171.381 39.5372 171.16 39.9862C170.939 40.4353 170.849 40.9372 170.899 41.435C170.949 41.9329 171.137 42.4068 171.443 42.8029C171.598 43.2136 171.868 43.5706 172.222 43.8308C172.21 43.9029 172.204 43.9759 172.204 44.049V44.7037C171.033 45.027 170.001 45.7254 169.265 46.692C168.529 47.6585 168.13 48.8398 168.13 50.0546V54.9232H179.216V50.048C179.216 48.8371 178.821 47.6592 178.09 46.694C177.358 45.7287 176.332 45.029 175.166 44.7015Z" fill="url(#paint6_linear_1_354)"/>
</g>
<path d="M173.337 44.5817H174.014C175.341 44.5817 176.614 45.1089 177.552 46.0473C178.491 46.9857 179.018 48.2585 179.018 49.5856V54.6048H168.325V49.5856C168.325 48.9277 168.454 48.2763 168.706 47.6687C168.958 47.061 169.328 46.509 169.793 46.0442C170.259 45.5794 170.812 45.211 171.42 44.9601C172.028 44.7091 172.679 44.5805 173.337 44.5817Z" fill="#514ABF"/>
<path d="M173.649 42.8379H173.485C172.808 42.8379 172.259 43.387 172.259 44.0643V44.8827C172.259 45.56 172.808 46.1091 173.485 46.1091H173.649C174.326 46.1091 174.876 45.56 174.876 44.8827V44.0643C174.876 43.387 174.326 42.8379 173.649 42.8379Z" fill="#FDA57D"/>
<path opacity="0.05" d="M171.351 45.16L172.228 47.0411L173.099 46.1704L172.228 44.8326L171.351 45.16Z" fill="black"/>
<path d="M171.382 45.0678L172.255 46.9489L173.127 46.076L172.255 44.7405L171.853 44.8627C171.814 44.8748 171.775 44.8894 171.737 44.9063L171.382 45.0678Z" fill="white"/>
<path opacity="0.05" d="M175.785 45.0681L174.906 47.0409L174.033 46.1701L174.93 44.7626L175.785 45.0681Z" fill="black"/>
<path d="M175.755 44.9765L174.882 46.9405L174.009 46.0676L174.906 44.66L175.07 44.708C175.247 44.7588 175.422 44.8207 175.591 44.8935L175.755 44.9765Z" fill="white"/>
<path d="M173.064 46.0089L173.553 46.7203L174.068 46.0089H173.064Z" fill="#FDA57D"/>
<path opacity="0.1" d="M170.341 48.5859C170.341 48.5859 169.822 53.7557 170.158 54.0918L170.341 48.5859Z" fill="black"/>
<path opacity="0.1" d="M176.766 48.5859C176.766 48.5859 177.285 53.7557 176.949 54.0918L176.766 48.5859Z" fill="black"/>
<path opacity="0.05" d="M173.566 44.4247C174.031 44.4247 174.484 44.2764 174.858 44.0013C174.809 43.6941 174.652 43.4144 174.415 43.2125C174.178 43.0106 173.877 42.8995 173.566 42.8993C173.255 42.8995 172.954 43.0106 172.717 43.2125C172.481 43.4144 172.324 43.6941 172.274 44.0013C172.649 44.2764 173.102 44.4247 173.566 44.4247Z" fill="black"/>
<path d="M173.566 43.953C174.99 43.953 176.144 42.7991 176.144 41.3757C176.144 39.9523 174.99 38.7985 173.566 38.7985C172.143 38.7985 170.989 39.9523 170.989 41.3757C170.989 42.7991 172.143 43.953 173.566 43.953Z" fill="black"/>
<path d="M173.566 44.3632C174.77 44.3632 175.747 43.3872 175.747 42.1831C175.747 40.9791 174.77 40.0031 173.566 40.0031C172.362 40.0031 171.386 40.9791 171.386 42.1831C171.386 43.3872 172.362 44.3632 173.566 44.3632Z" fill="#FDA57D"/>
<path opacity="0.05" d="M171.81 40.0224L172.359 40.6945C172.359 40.6945 174.775 40.9128 175.05 40.3585C175.325 39.8042 173.459 39.4092 173.459 39.4092L171.81 40.0224Z" fill="black"/>
<path d="M171.809 39.9616L172.359 40.6337C172.359 40.6337 174.775 40.852 175.05 40.2977C175.325 39.7434 173.459 39.3484 173.459 39.3484L171.809 39.9616Z" fill="black"/>
<path d="M171.382 42.3163C171.466 42.3163 171.535 42.1932 171.535 42.0413C171.535 41.8895 171.466 41.7664 171.382 41.7664C171.298 41.7664 171.229 41.8895 171.229 42.0413C171.229 42.1932 171.298 42.3163 171.382 42.3163Z" fill="#FDA57D"/>
<path d="M175.755 42.3163C175.839 42.3163 175.908 42.1932 175.908 42.0413C175.908 41.8895 175.839 41.7664 175.755 41.7664C175.671 41.7664 175.602 41.8895 175.602 42.0413C175.602 42.1932 175.671 42.3163 175.755 42.3163Z" fill="#FDA57D"/>
<path d="M183.674 59.816H164.483V79.9671H183.674V59.816Z" fill="url(#paint7_linear_1_354)"/>
<path d="M182.841 60.6909H165.317V79.0896H182.841V60.6909Z" fill="#6C63FF"/>
<g opacity="0.5">
<path opacity="0.5" d="M175.404 68.9816V68.3051C175.404 68.2724 175.404 68.2375 175.404 68.2048C175.775 67.9269 176.058 67.5481 176.22 67.1136C176.488 66.7655 176.673 66.36 176.758 65.9288C176.844 65.4977 176.828 65.0526 176.713 64.6284C176.598 64.2041 176.386 63.8124 176.094 63.4837C175.802 63.155 175.438 62.8984 175.031 62.7338C175.062 62.5954 175.062 62.4519 175.032 62.3133C175.001 62.1747 174.941 62.0445 174.855 61.9319C174.769 61.8192 174.659 61.7269 174.533 61.6614C174.407 61.5959 174.268 61.5589 174.126 61.5529C173.985 61.5469 173.843 61.5721 173.712 61.6267C173.582 61.6813 173.464 61.764 173.369 61.8689C173.273 61.9738 173.202 62.0985 173.16 62.234C173.118 62.3695 173.106 62.5125 173.126 62.6531C172.686 62.7884 172.285 63.0284 171.958 63.3524C171.631 63.6764 171.388 64.0748 171.249 64.5135C171.109 64.9522 171.079 65.4181 171.159 65.8713C171.239 66.3245 171.428 66.7516 171.709 67.1158C171.871 67.5503 172.154 67.9291 172.525 68.2069C172.525 68.2397 172.525 68.2724 172.525 68.3073V69.0231C171.307 69.2567 170.208 69.9072 169.417 70.8629C168.625 71.8186 168.191 73.0198 168.189 74.2605V80.0021H179.995V74.2693C179.995 72.9827 179.53 71.7396 178.687 70.7682C177.843 69.7968 176.678 69.1624 175.404 68.9816Z" fill="url(#paint8_linear_1_354)"/>
</g>
<path d="M173.741 69.1033H174.417C175.074 69.1033 175.725 69.2327 176.332 69.4842C176.939 69.7356 177.491 70.1042 177.956 70.5689C178.42 71.0335 178.789 71.5852 179.04 72.1923C179.292 72.7994 179.421 73.4501 179.421 74.1072V79.1264H168.728V74.1072C168.728 72.7801 169.255 71.5073 170.194 70.5689C171.132 69.6305 172.405 69.1033 173.732 69.1033H173.741Z" fill="white"/>
<path d="M174.051 67.3601H173.887C173.21 67.3601 172.661 67.9092 172.661 68.5865V69.4049C172.661 70.0822 173.21 70.6313 173.887 70.6313H174.051C174.728 70.6313 175.277 70.0822 175.277 69.4049V68.5865C175.277 67.9092 174.728 67.3601 174.051 67.3601Z" fill="#FDB797"/>
<path d="M173.468 70.5305L173.957 71.2419L174.469 70.5305H173.468Z" fill="#FDB797"/>
<path opacity="0.1" d="M170.744 73.1061C170.744 73.1061 170.225 78.2759 170.561 78.6119L170.744 73.1061Z" fill="black"/>
<path opacity="0.1" d="M177.169 73.1061C177.169 73.1061 177.689 78.2759 177.353 78.6119L177.169 73.1061Z" fill="black"/>
<path opacity="0.05" d="M173.979 68.9464C174.444 68.9464 174.896 68.7981 175.271 68.523C175.221 68.2158 175.064 67.9361 174.828 67.7342C174.591 67.5323 174.29 67.4212 173.979 67.421C173.665 67.417 173.36 67.5262 173.119 67.7285C172.879 67.9308 172.719 68.2128 172.669 68.523C173.049 68.8017 173.508 68.9502 173.979 68.9464Z" fill="black"/>
<path d="M173.97 68.4753C175.393 68.4753 176.547 67.3214 176.547 65.8981C176.547 64.4747 175.393 63.3208 173.97 63.3208C172.546 63.3208 171.393 64.4747 171.393 65.8981C171.393 67.3214 172.546 68.4753 173.97 68.4753Z" fill="#FDD835"/>
<path d="M173.97 68.8849C175.174 68.8849 176.15 67.9089 176.15 66.7049C176.15 65.5008 175.174 64.5248 173.97 64.5248C172.766 64.5248 171.79 65.5008 171.79 66.7049C171.79 67.9089 172.766 68.8849 173.97 68.8849Z" fill="#FDB797"/>
<path d="M171.783 66.8384C171.868 66.8384 171.936 66.7153 171.936 66.5634C171.936 66.4116 171.868 66.2885 171.783 66.2885C171.699 66.2885 171.631 66.4116 171.631 66.5634C171.631 66.7153 171.699 66.8384 171.783 66.8384Z" fill="#FDB797"/>
<path d="M176.159 66.8384C176.243 66.8384 176.311 66.7153 176.311 66.5634C176.311 66.4116 176.243 66.2885 176.159 66.2885C176.074 66.2885 176.006 66.4116 176.006 66.5634C176.006 66.7153 176.074 66.8384 176.159 66.8384Z" fill="#FDB797"/>
<path d="M174.079 64.1954C174.563 64.1954 174.954 63.8036 174.954 63.3203C174.954 62.837 174.563 62.4452 174.079 62.4452C173.596 62.4452 173.204 62.837 173.204 63.3203C173.204 63.8036 173.596 64.1954 174.079 64.1954Z" fill="#FDD835"/>
<path d="M172.327 64.1957C172.327 64.1957 173.2 65.9415 175.831 65.0686L174.959 64.1957H172.327Z" fill="#FDD835"/>
<path d="M141.408 38.9054H93.1847V41.0026H141.408V38.9054Z" fill="white"/>
<path d="M141.408 43.0975H93.1847V45.1947H141.408V43.0975Z" fill="white"/>
<path d="M120.441 47.2917H93.1847V49.3889H120.441V47.2917Z" fill="white"/>
<path d="M133.022 51.4843H93.1849V53.5814H133.022V51.4843Z" fill="white"/>
<path d="M126.731 55.678H93.1849V57.7751H126.731V55.678Z" fill="white"/>
<path d="M141.408 59.8704H93.1847V61.9675H141.408V59.8704Z" fill="white"/>
<path d="M137.214 66.1619H95.282V82.9347H137.214V66.1619Z" fill="white"/>
<path d="M30.2853 133.255H7.22102V7.45459H143.505V17.9382" stroke="#3AD29F" stroke-width="1.90551" stroke-miterlimit="10" stroke-dasharray="3.81 3.81"/>
<g opacity="0.5">
<path opacity="0.5" d="M7.92161 15.8432C12.2966 15.8432 15.8432 12.2966 15.8432 7.92161C15.8432 3.54663 12.2966 0 7.92161 0C3.54663 0 0 3.54663 0 7.92161C0 12.2966 3.54663 15.8432 7.92161 15.8432Z" fill="url(#paint9_linear_1_354)"/>
</g>
<path d="M7.92131 15.3759C12.0384 15.3759 15.3759 12.0384 15.3759 7.92128C15.3759 3.80422 12.0384 0.466675 7.92131 0.466675C3.80424 0.466675 0.466702 3.80422 0.466702 7.92128C0.466702 12.0384 3.80424 15.3759 7.92131 15.3759Z" fill="#69F0AE"/>
<path d="M5.12598 7.45462L7.92146 10.0166L11.8801 4.19214L13.2789 5.35747L7.92146 12.3473L3.96065 7.92163L5.12598 7.45462Z" fill="white"/>
<path d="M92.5911 72.457L39.6014 72.531C37.532 72.5339 35.8568 74.2138 35.8597 76.2832L35.9802 162.548C35.983 164.617 37.6629 166.293 39.7323 166.29L92.722 166.216C94.7914 166.213 96.4666 164.533 96.4637 162.463L96.3432 76.1987C96.3403 74.1294 94.6604 72.4541 92.5911 72.457Z" fill="url(#paint10_linear_1_354)"/>
<path d="M92.3304 79.6197L40.0979 79.6926L40.2077 158.33L92.4402 158.257L92.3304 79.6197Z" fill="url(#paint11_linear_1_354)"/>
<path d="M91.7334 73.8749L40.4634 73.9465C38.9351 73.9486 37.698 75.1892 37.7001 76.7174L37.8173 160.623C37.8194 162.151 39.06 163.389 40.5883 163.386L91.8583 163.315C93.3865 163.313 94.6237 162.072 94.6215 160.544L94.5044 76.6381C94.5022 75.1099 93.2616 73.8727 91.7334 73.8749Z" fill="white"/>
<path d="M90.7369 80.7112L41.6819 80.7797L41.7866 155.797L90.8417 155.729L90.7369 80.7112Z" fill="#E6E6E6"/>
<path d="M66.2075 161.695C67.3235 161.695 68.2282 160.767 68.2282 159.624C68.2282 158.48 67.3235 157.553 66.2075 157.553C65.0914 157.553 64.1867 158.48 64.1867 159.624C64.1867 160.767 65.0914 161.695 66.2075 161.695Z" fill="#DBDBDB"/>
<path d="M57.7177 78.2018C58.0901 78.2013 58.3916 77.8922 58.3911 77.5113C58.3905 77.1305 58.0882 76.8221 57.7158 76.8227C57.3434 76.8232 57.0419 77.1324 57.0424 77.5132C57.043 77.8941 57.3453 78.2024 57.7177 78.2018Z" fill="#DBDBDB"/>
<path d="M69.6793 77.081L61.2514 77.0928C61.1598 77.0929 61.0857 77.1673 61.0858 77.2589L61.0863 77.6168C61.0864 77.7084 61.1608 77.7825 61.2524 77.7824L69.6803 77.7706C69.7719 77.7705 69.846 77.6961 69.8459 77.6045L69.8454 77.2466C69.8453 77.155 69.7709 77.0809 69.6793 77.081Z" fill="#DBDBDB"/>
<path d="M85.1562 126.964H65.9654V147.115H85.1562V126.964Z" fill="url(#paint12_linear_1_354)"/>
<path d="M84.3225 127.841H66.799V146.24H84.3225V127.841Z" fill="#6C63FF"/>
<g opacity="0.5">
<path opacity="0.5" d="M77.0511 136.025L76.8329 135.947L76.8198 135.966H76.8067V135.373C76.8067 135.3 76.8009 135.227 76.7893 135.154C77.1428 134.894 77.4134 134.537 77.5683 134.127C77.874 133.73 78.0625 133.256 78.1125 132.759C78.1625 132.261 78.072 131.759 77.8513 131.31C77.6306 130.861 77.2884 130.483 76.8637 130.218C76.439 129.954 75.9486 129.813 75.4483 129.813C74.9479 129.813 74.4575 129.954 74.0328 130.218C73.6081 130.483 73.2659 130.861 73.0452 131.31C72.8245 131.759 72.734 132.261 72.784 132.759C72.834 133.256 73.0226 133.73 73.3282 134.127C73.4831 134.537 73.7537 134.894 74.1073 135.154C74.0956 135.227 74.0898 135.3 74.0898 135.373V136.027C72.9188 136.351 71.8861 137.049 71.1502 138.016C70.4142 138.982 70.0156 140.163 70.0155 141.378V146.247H81.1123V141.369C81.1116 140.157 80.7142 138.979 79.9809 138.014C79.2476 137.049 78.2186 136.351 77.0511 136.025Z" fill="url(#paint13_linear_1_354)"/>
</g>
<path d="M75.2227 135.902H75.8992C77.2264 135.902 78.4991 136.43 79.4375 137.368C80.376 138.306 80.9032 139.579 80.9032 140.906V145.925H70.2101V140.906C70.2101 140.248 70.3398 139.597 70.5918 138.989C70.8438 138.382 71.2132 137.83 71.6788 137.365C72.1444 136.9 72.697 136.532 73.3051 136.281C73.9133 136.03 74.5649 135.901 75.2227 135.902Z" fill="#3AD29F"/>
<path d="M75.5346 134.159H75.3709C74.6936 134.159 74.1445 134.708 74.1445 135.386V136.204C74.1445 136.881 74.6936 137.43 75.3709 137.43H75.5346C76.2119 137.43 76.761 136.881 76.761 136.204V135.386C76.761 134.708 76.2119 134.159 75.5346 134.159Z" fill="#BE7C5E"/>
<path d="M74.9499 137.33L75.4387 138.041L75.9537 137.33H74.9499Z" fill="#BE7C5E"/>
<path opacity="0.1" d="M72.2264 139.907C72.2264 139.907 71.707 145.077 72.043 145.413L72.2264 139.907Z" fill="black"/>
<path opacity="0.1" d="M78.651 139.907C78.651 139.907 79.1703 145.077 78.8343 145.413L78.651 139.907Z" fill="black"/>
<path opacity="0.05" d="M75.4518 135.737C75.9165 135.737 76.3691 135.588 76.7437 135.313C76.6944 135.006 76.5373 134.726 76.3006 134.524C76.0638 134.322 75.7629 134.211 75.4518 134.211C75.1406 134.211 74.8397 134.322 74.6029 134.524C74.3662 134.726 74.2091 135.006 74.1599 135.313C74.5344 135.588 74.987 135.737 75.4518 135.737Z" fill="black"/>
<path d="M75.4515 135.274C76.8749 135.274 78.0287 134.121 78.0287 132.697C78.0287 131.274 76.8749 130.12 75.4515 130.12C74.0281 130.12 72.8742 131.274 72.8742 132.697C72.8742 134.121 74.0281 135.274 75.4515 135.274Z" fill="#444444"/>
<path d="M75.4519 135.684C76.6559 135.684 77.632 134.708 77.632 133.504C77.632 132.3 76.6559 131.324 75.4519 131.324C74.2479 131.324 73.2718 132.3 73.2718 133.504C73.2718 134.708 74.2479 135.684 75.4519 135.684Z" fill="#BE7C5E"/>
<path opacity="0.05" d="M73.695 131.344L74.245 132.016C74.245 132.016 76.6607 132.234 76.9357 131.68C77.2107 131.126 75.3448 130.731 75.3448 130.731L73.695 131.344Z" fill="black"/>
<path d="M73.695 131.282L74.2449 131.955C74.2449 131.955 76.6607 132.173 76.9357 131.618C77.2106 131.064 75.3448 130.669 75.3448 130.669L73.695 131.282Z" fill="#444444"/>
<path d="M73.2672 133.637C73.3516 133.637 73.42 133.514 73.42 133.362C73.42 133.211 73.3516 133.087 73.2672 133.087C73.1829 133.087 73.1145 133.211 73.1145 133.362C73.1145 133.514 73.1829 133.637 73.2672 133.637Z" fill="#BE7C5E"/>
<path d="M77.6404 133.637C77.7247 133.637 77.7931 133.514 77.7931 133.362C77.7931 133.211 77.7247 133.087 77.6404 133.087C77.556 133.087 77.4876 133.211 77.4876 133.362C77.4876 133.514 77.556 133.637 77.6404 133.637Z" fill="#BE7C5E"/>
<path d="M73.7475 130.301C73.9182 130.083 74.1535 129.925 74.4196 129.849C74.9019 129.657 75.4038 129.46 75.921 129.495C75.9714 129.495 76.0208 129.509 76.0629 129.537C76.0975 129.574 76.1262 129.616 76.148 129.661C76.3051 129.895 76.7459 129.879 76.8026 130.154C76.8179 130.244 76.7808 130.34 76.8026 130.427C76.8594 130.645 77.1671 130.624 77.3482 130.748C77.4447 130.835 77.5032 130.956 77.5114 131.086C77.5195 131.216 77.4766 131.344 77.3919 131.442C77.2122 131.632 76.9796 131.765 76.7241 131.822C76.2757 131.994 75.7881 132.037 75.3165 131.946C74.6553 131.774 73.1081 131.346 73.7475 130.301Z" fill="#444444"/>
<path d="M65.5161 126.746H46.3253V146.897H65.5161V126.746Z" fill="url(#paint14_linear_1_354)"/>
<path d="M64.6823 127.623H47.1587V146.022H64.6823V127.623Z" fill="#6C63FF"/>
<g opacity="0.5">
<path opacity="0.5" d="M57.4112 135.806L57.193 135.728L57.1799 135.747H57.1668V135.154C57.1668 135.081 57.161 135.008 57.1494 134.936C57.5029 134.675 57.7735 134.318 57.9284 133.908C58.2341 133.512 58.4226 133.038 58.4726 132.54C58.5226 132.042 58.4321 131.54 58.2114 131.091C57.9907 130.642 57.6486 130.264 57.2238 129.999C56.7991 129.735 56.3087 129.595 55.8084 129.595C55.308 129.595 54.8177 129.735 54.3929 129.999C53.9682 130.264 53.6261 130.642 53.4053 131.091C53.1846 131.54 53.0941 132.042 53.1441 132.54C53.1942 133.038 53.3827 133.512 53.6883 133.908C53.8432 134.318 54.1138 134.675 54.4674 134.936C54.4557 135.008 54.4499 135.081 54.4499 135.154V135.809C53.2789 136.132 52.2462 136.83 51.5103 137.797C50.7743 138.763 50.3758 139.945 50.3756 141.159V146.028H61.4724V141.151C61.4717 139.939 61.0743 138.76 60.341 137.795C59.6077 136.83 58.5787 136.132 57.4112 135.806Z" fill="url(#paint15_linear_1_354)"/>
</g>
<path d="M55.5823 135.684H56.2588C56.9159 135.684 57.5666 135.814 58.1737 136.065C58.7808 136.317 59.3324 136.685 59.7971 137.15C60.2618 137.615 60.6304 138.166 60.8818 138.773C61.1333 139.38 61.2627 140.031 61.2627 140.688V145.707H50.5696V140.688C50.5696 140.03 50.6994 139.379 50.9514 138.771C51.2034 138.164 51.5728 137.612 52.0383 137.147C52.5039 136.682 53.0566 136.314 53.6647 136.063C54.2728 135.812 54.9244 135.683 55.5823 135.684Z" fill="#514ABF"/>
<path d="M55.8944 133.94H55.7307C55.0534 133.94 54.5043 134.49 54.5043 135.167V135.985C54.5043 136.663 55.0534 137.212 55.7307 137.212H55.8944C56.5717 137.212 57.1208 136.663 57.1208 135.985V135.167C57.1208 134.49 56.5717 133.94 55.8944 133.94Z" fill="#FDA57D"/>
<path opacity="0.1" d="M52.586 139.689C52.586 139.689 52.0666 144.859 52.4027 145.195L52.586 139.689Z" fill="black"/>
<path opacity="0.1" d="M59.0105 139.689C59.0105 139.689 59.5298 144.859 59.1938 145.195L59.0105 139.689Z" fill="black"/>
<path opacity="0.05" d="M55.8115 135.519C56.2762 135.519 56.7288 135.37 57.1034 135.095C57.0541 134.788 56.8971 134.508 56.6603 134.306C56.4236 134.104 56.1227 133.993 55.8115 133.993C55.5004 133.993 55.1994 134.104 54.9627 134.306C54.726 134.508 54.5689 134.788 54.5196 135.095C54.8942 135.37 55.3468 135.519 55.8115 135.519Z" fill="black"/>
<path d="M55.8112 135.056C57.2346 135.056 58.3885 133.902 58.3885 132.478C58.3885 131.055 57.2346 129.901 55.8112 129.901C54.3879 129.901 53.234 131.055 53.234 132.478C53.234 133.902 54.3879 135.056 55.8112 135.056Z" fill="#444444"/>
<path d="M55.8113 135.466C57.0154 135.466 57.9914 134.49 57.9914 133.286C57.9914 132.082 57.0154 131.106 55.8113 131.106C54.6073 131.106 53.6313 132.082 53.6313 133.286C53.6313 134.49 54.6073 135.466 55.8113 135.466Z" fill="#FDA57D"/>
<path opacity="0.05" d="M54.0547 131.126L54.6047 131.798C54.6047 131.798 57.0205 132.016 57.2954 131.462C57.5704 130.908 55.7045 130.513 55.7045 130.513L54.0547 131.126Z" fill="black"/>
<path d="M54.0548 131.065L54.6047 131.737C54.6047 131.737 57.0205 131.955 57.2954 131.401C57.5704 130.846 55.7046 130.451 55.7046 130.451L54.0548 131.065Z" fill="#444444"/>
<path d="M53.6271 133.419C53.7114 133.419 53.7798 133.296 53.7798 133.144C53.7798 132.993 53.7114 132.87 53.6271 132.87C53.5427 132.87 53.4743 132.993 53.4743 133.144C53.4743 133.296 53.5427 133.419 53.6271 133.419Z" fill="#FDA57D"/>
<path d="M58.0004 133.419C58.0847 133.419 58.1531 133.296 58.1531 133.144C58.1531 132.993 58.0847 132.87 58.0004 132.87C57.916 132.87 57.8476 132.993 57.8476 133.144C57.8476 133.296 57.916 133.419 58.0004 133.419Z" fill="#FDA57D"/>
<path d="M82.7011 90.3082H47.0582V91.8576H82.7011V90.3082Z" fill="white"/>
<path d="M82.7011 93.4077H47.0582V94.9571H82.7011V93.4077Z" fill="white"/>
<path d="M67.205 96.5062H47.0583V98.0556H67.205V96.5062Z" fill="white"/>
<path d="M76.5036 99.6072H47.0583V101.157H76.5036V99.6072Z" fill="white"/>
<path d="M71.8532 102.706H47.0583V104.255H71.8532V102.706Z" fill="white"/>
<path d="M82.7011 105.805H47.0582V107.354H82.7011V105.805Z" fill="white"/>
<path d="M79.6022 110.455H48.6076V122.853H79.6022V110.455Z" fill="white"/>
<path d="M54.2968 132.463C54.4068 132.269 54.4981 132.064 54.5696 131.852C54.6855 131.601 54.8684 131.387 55.0982 131.234C55.3281 131.08 55.5958 130.994 55.872 130.983C56.1481 130.972 56.4219 131.038 56.6631 131.173C56.9042 131.308 57.1034 131.507 57.2385 131.748C57.4175 132.068 57.4764 132.448 57.675 132.758C57.7032 132.779 57.7354 132.794 57.7697 132.802C57.804 132.81 57.8395 132.811 57.8742 132.805C57.9088 132.798 57.9418 132.785 57.971 132.765C58.0001 132.746 58.0249 132.72 58.0438 132.69C58.0783 132.627 58.0983 132.557 58.1025 132.486C58.1066 132.414 58.0948 132.342 58.0678 132.276C58.022 132.14 57.9456 132.016 57.8954 131.883C57.8453 131.666 57.7722 131.456 57.6772 131.254C57.5604 131.102 57.4114 130.978 57.2407 130.89C56.7584 130.593 56.1998 130.285 55.6542 130.454C55.4701 130.516 55.296 130.605 55.137 130.718L54.443 131.154C54.2199 131.279 54.0205 131.442 53.8538 131.636C53.7033 131.833 53.4174 132.42 53.5505 132.673C53.7076 132.961 54.1594 132.645 54.2968 132.463Z" fill="#444444"/>
<path d="M55.2636 137.046V145.716H56.5446L56.3547 137.046H55.2636Z" fill="white"/>
<path d="M55.05 136.928L55.7919 138.008L56.5732 136.928H55.05Z" fill="#FDA57D"/>
</g>
<defs>
<linearGradient id="paint0_linear_1_354" x1="34.5757" y1="102.934" x2="34.5757" y2="43.3996" gradientUnits="userSpaceOnUse">
<stop stop-color="#808080" stop-opacity="0.25"/>
<stop offset="0.54" stop-color="#808080" stop-opacity="0.12"/>
<stop offset="1" stop-color="#808080" stop-opacity="0.1"/>
</linearGradient>
<linearGradient id="paint1_linear_1_354" x1="2194.15" y1="5931.12" x2="2194.15" y2="4993.16" gradientUnits="userSpaceOnUse">
<stop stop-color="#808080" stop-opacity="0.25"/>
<stop offset="0.54" stop-color="#808080" stop-opacity="0.12"/>
<stop offset="1" stop-color="#808080" stop-opacity="0.1"/>
</linearGradient>
<linearGradient id="paint2_linear_1_354" x1="2556.65" y1="6013.01" x2="2556.65" y2="5307.24" gradientUnits="userSpaceOnUse">
<stop stop-color="#808080" stop-opacity="0.25"/>
<stop offset="0.54" stop-color="#808080" stop-opacity="0.12"/>
<stop offset="1" stop-color="#808080" stop-opacity="0.1"/>
</linearGradient>
<linearGradient id="paint3_linear_1_354" x1="57016.6" y1="3042" x2="57016.4" y2="2951.85" gradientUnits="userSpaceOnUse">
<stop stop-color="#808080" stop-opacity="0.25"/>
<stop offset="0.54" stop-color="#808080" stop-opacity="0.12"/>
<stop offset="1" stop-color="#808080" stop-opacity="0.1"/>
</linearGradient>
<linearGradient id="paint4_linear_1_354" x1="95525.3" y1="48683.8" x2="95525.3" y2="16848.1" gradientUnits="userSpaceOnUse">
<stop stop-color="#808080" stop-opacity="0.25"/>
<stop offset="0.54" stop-color="#808080" stop-opacity="0.12"/>
<stop offset="1" stop-color="#808080" stop-opacity="0.1"/>
</linearGradient>
<linearGradient id="paint5_linear_1_354" x1="15463.1" y1="5187.65" x2="15463.1" y2="3326.91" gradientUnits="userSpaceOnUse">
<stop stop-color="#808080" stop-opacity="0.25"/>
<stop offset="0.54" stop-color="#808080" stop-opacity="0.12"/>
<stop offset="1" stop-color="#808080" stop-opacity="0.1"/>
</linearGradient>
<linearGradient id="paint6_linear_1_354" x1="10280.6" y1="4689.49" x2="10844.3" y2="4689.49" gradientUnits="userSpaceOnUse">
<stop stop-color="#808080" stop-opacity="0.25"/>
<stop offset="0.54" stop-color="#808080" stop-opacity="0.12"/>
<stop offset="1" stop-color="#808080" stop-opacity="0.1"/>
</linearGradient>
<linearGradient id="paint7_linear_1_354" x1="15473" y1="7443.95" x2="15473" y2="5583.21" gradientUnits="userSpaceOnUse">
<stop stop-color="#808080" stop-opacity="0.25"/>
<stop offset="0.54" stop-color="#808080" stop-opacity="0.12"/>
<stop offset="1" stop-color="#808080" stop-opacity="0.1"/>
</linearGradient>
<linearGradient id="paint8_linear_1_354" x1="11259.5" y1="8099.14" x2="11259.5" y2="6539.92" gradientUnits="userSpaceOnUse">
<stop stop-color="#808080" stop-opacity="0.25"/>
<stop offset="0.54" stop-color="#808080" stop-opacity="0.12"/>
<stop offset="1" stop-color="#808080" stop-opacity="0.1"/>
</linearGradient>
<linearGradient id="paint9_linear_1_354" x1="575.109" y1="1150.06" x2="575.109" y2="0" gradientUnits="userSpaceOnUse">
<stop stop-color="#808080" stop-opacity="0.25"/>
<stop offset="0.54" stop-color="#808080" stop-opacity="0.12"/>
<stop offset="1" stop-color="#808080" stop-opacity="0.1"/>
</linearGradient>
<linearGradient id="paint10_linear_1_354" x1="27044.3" y1="79349.1" x2="26987.8" y2="38882.6" gradientUnits="userSpaceOnUse">
<stop stop-color="#808080" stop-opacity="0.25"/>
<stop offset="0.54" stop-color="#808080" stop-opacity="0.12"/>
<stop offset="1" stop-color="#808080" stop-opacity="0.1"/>
</linearGradient>
<linearGradient id="paint11_linear_1_354" x1="66.3283" y1="159.092" x2="66.218" y2="80.0928" gradientUnits="userSpaceOnUse">
<stop stop-opacity="0.09"/>
<stop offset="0.55" stop-opacity="0.07"/>
<stop offset="1" stop-opacity="0.02"/>
</linearGradient>
<linearGradient id="paint12_linear_1_354" x1="6710.78" y1="13711.6" x2="6710.78" y2="11850.8" gradientUnits="userSpaceOnUse">
<stop stop-color="#808080" stop-opacity="0.25"/>
<stop offset="0.54" stop-color="#808080" stop-opacity="0.12"/>
<stop offset="1" stop-color="#808080" stop-opacity="0.1"/>
</linearGradient>
<linearGradient id="paint13_linear_1_354" x1="5203.29" y1="11657.7" x2="5767.56" y2="11657.7" gradientUnits="userSpaceOnUse">
<stop stop-color="#808080" stop-opacity="0.25"/>
<stop offset="0.54" stop-color="#808080" stop-opacity="0.12"/>
<stop offset="1" stop-color="#808080" stop-opacity="0.1"/>
</linearGradient>
<linearGradient id="paint14_linear_1_354" x1="4963.97" y1="13691.2" x2="4963.97" y2="11830.5" gradientUnits="userSpaceOnUse">
<stop stop-color="#808080" stop-opacity="0.25"/>
<stop offset="0.54" stop-color="#808080" stop-opacity="0.12"/>
<stop offset="1" stop-color="#808080" stop-opacity="0.1"/>
</linearGradient>
<linearGradient id="paint15_linear_1_354" x1="4184.94" y1="11641.1" x2="4749.21" y2="11641.1" gradientUnits="userSpaceOnUse">
<stop stop-color="#808080" stop-opacity="0.25"/>
<stop offset="0.54" stop-color="#808080" stop-opacity="0.12"/>
<stop offset="1" stop-color="#808080" stop-opacity="0.1"/>
</linearGradient>
<clipPath id="clip0_1_354">
<rect width="200" height="166.288" fill="white"/>
</clipPath>
</defs>
</svg>
