<svg width="201" height="60" viewBox="0 0 201 60" fill="none" xmlns="http://www.w3.org/2000/svg">
<path d="M196.313 1H4.28163C2.46924 1 1 2.46751 1 4.27778V55.0833C1 56.8936 2.46924 58.3611 4.28163 58.3611H196.313C198.125 58.3611 199.595 56.8936 199.595 55.0833V4.27778C199.595 2.46751 198.125 1 196.313 1Z" stroke="#333333" stroke-width="2"/>
<path d="M101.308 30.6329C97.9173 30.6329 95.233 33.1732 95.233 36.7014C95.233 40.0884 97.9173 42.7698 101.308 42.7698C104.699 42.7698 107.384 40.2295 107.384 36.7014C107.384 33.1732 104.699 30.6329 101.308 30.6329ZM101.308 40.2295C99.4712 40.2295 97.9173 38.6772 97.9173 36.5603C97.9173 34.4433 99.4712 32.891 101.308 32.891C103.145 32.891 104.699 34.3022 104.699 36.5603C104.699 38.8183 103.145 40.2295 101.308 40.2295ZM88.1676 30.6329C84.7769 30.6329 82.0924 33.1732 82.0924 36.7014C82.0924 40.0884 84.7769 42.7698 88.1676 42.7698C91.5592 42.7698 94.2435 40.2295 94.2435 36.7014C94.2435 33.1732 91.5592 30.6329 88.1676 30.6329ZM88.1676 40.2295C86.3315 40.2295 84.7769 38.6772 84.7769 36.5603C84.7769 34.4433 86.3315 32.891 88.1676 32.891C90.0045 32.891 91.5592 34.3022 91.5592 36.5603C91.5592 38.8183 90.0045 40.2295 88.1676 40.2295ZM72.4845 32.4676V35.0078H78.56C78.4188 36.4192 77.8536 37.5481 77.1471 38.2537C76.2994 39.1005 74.8864 40.0884 72.4845 40.0884C68.6696 40.0884 65.8437 37.1247 65.8437 33.3144C65.8437 29.504 68.8109 26.5403 72.4845 26.5403C74.4626 26.5403 76.0168 27.387 77.1471 28.3749L78.984 26.5403C77.4297 25.129 75.4516 24 72.6258 24C67.5393 24 63.1592 28.2338 63.1592 33.3144C63.1592 38.3949 67.5393 42.6287 72.6258 42.6287C75.4516 42.6287 77.4297 41.7819 79.1252 39.9473C80.8208 38.2537 81.3859 35.8546 81.3859 34.02C81.3859 33.4555 81.3859 32.891 81.2446 32.4676H72.4845ZM136.632 34.4433C136.066 33.0321 134.653 30.6329 131.545 30.6329C128.437 30.6329 125.893 33.0321 125.893 36.7014C125.893 40.0884 128.437 42.7698 131.827 42.7698C134.512 42.7698 136.207 41.0763 136.773 40.0884L134.795 38.6771C134.088 39.665 133.24 40.3706 131.827 40.3706C130.415 40.3706 129.566 39.8062 128.86 38.536L136.914 35.1489L136.632 34.4433ZM128.437 36.4192C128.437 34.1611 130.273 32.891 131.545 32.891C132.534 32.891 133.523 33.4555 133.805 34.1611L128.437 36.4192ZM121.795 42.2053H124.48V24.5645H121.795V42.2053ZM117.557 31.903C116.85 31.1974 115.72 30.4918 114.307 30.4918C111.34 30.4918 108.514 33.1732 108.514 36.5603C108.514 39.9473 111.199 42.4876 114.307 42.4876C115.72 42.4876 116.85 41.7819 117.415 41.0763H117.557V41.9231C117.557 44.181 116.285 45.4512 114.307 45.4512C112.753 45.4512 111.622 44.3222 111.34 43.3343L109.079 44.3222C109.785 45.8746 111.481 47.8503 114.449 47.8503C117.557 47.8503 120.1 46.0157 120.1 41.6408V30.9152H117.557V31.903ZM114.449 40.2295C112.612 40.2295 111.057 38.6772 111.057 36.5603C111.057 34.4433 112.612 32.891 114.449 32.891C116.285 32.891 117.698 34.4433 117.698 36.5603C117.698 38.6772 116.285 40.2295 114.449 40.2295ZM148.924 24.5645H142.566V42.2053H145.25V35.5724H148.924C151.89 35.5724 154.717 33.4555 154.717 30.0685C154.717 26.6814 151.89 24.5645 148.924 24.5645ZM149.065 33.1732H145.25V27.1048H149.065C151.043 27.1048 152.173 28.7983 152.173 30.0685C152.032 31.4797 150.902 33.1732 149.065 33.1732ZM165.314 30.6329C163.335 30.6329 161.357 31.4797 160.651 33.3144L163.053 34.3022C163.618 33.3144 164.466 33.0321 165.455 33.0321C166.868 33.0321 168.139 33.8789 168.28 35.2901V35.4312C167.857 35.149 166.727 34.7256 165.596 34.7256C163.053 34.7256 160.51 36.1369 160.51 38.6771C160.51 41.0763 162.629 42.6287 164.89 42.6287C166.727 42.6287 167.574 41.7819 168.28 40.9352H168.422V42.3465H170.965V35.5724C170.683 32.3265 168.28 30.6329 165.314 30.6329ZM165.031 40.2295C164.183 40.2295 162.912 39.8062 162.912 38.6771C162.912 37.2659 164.466 36.8425 165.737 36.8425C166.868 36.8425 167.433 37.1248 168.139 37.407C167.857 39.1006 166.444 40.2295 165.031 40.2295ZM179.866 30.9152L176.9 38.536H176.759L173.65 30.9152H170.824L175.487 41.6408L172.802 47.5681H175.487L182.693 30.9152H179.866ZM156.129 42.2053H158.814V24.5645H156.129V42.2053Z" fill="#333333"/>
<path d="M19.0762 48.1283C18.5111 47.846 18.2285 47.1404 18.2285 46.4348C18.2285 46.2936 18.2285 46.0114 18.2285 45.8703C18.2285 35.4269 18.2285 24.9835 18.2285 14.6813C18.2285 14.1168 18.3698 13.6935 18.5111 13.129C18.6524 12.8467 18.935 12.5644 19.2176 12.2822C25.2931 18.3506 31.2274 24.419 37.1617 30.4875C31.0861 36.1325 25.1519 42.0599 19.0762 48.1283Z" fill="#333333"/>
<path d="M43.0957 24.278C41.4002 25.9715 39.5633 27.665 37.8679 29.4996C32.2162 23.7135 26.4232 17.9273 20.7715 12.1411C20.7715 12.1411 20.7715 12 20.9128 12C28.26 16.0926 35.6072 20.1853 43.0957 24.278Z" fill="#333333"/>
<path d="M20.7715 48.1285C26.4232 42.4834 32.2162 36.8384 37.8679 31.1934C39.4221 32.7457 41.1176 34.2982 42.9544 35.9916C35.6072 40.0843 28.26 44.177 20.9128 48.1285H20.7715Z" fill="#333333"/>
<path d="M43.944 35.4262C42.1072 33.7328 40.4118 32.0392 38.575 30.3458C40.4118 28.5111 42.2486 26.6765 44.0853 24.8418C44.6505 25.124 45.2157 25.4063 45.7808 25.8296C47.1937 26.6765 48.748 27.3821 50.1609 28.2288C50.5848 28.3699 50.8674 28.6522 51.1499 29.0755C51.7151 29.7812 51.7151 30.4869 51.1499 31.1925C50.8674 31.4747 50.5848 31.757 50.1609 31.8981C48.1828 33.1683 46.0635 34.2973 43.944 35.4262Z" fill="#333333"/>
</svg>
