<svg width="172" height="54" viewBox="0 0 172 54" fill="none" xmlns="http://www.w3.org/2000/svg">
<ellipse cx="26.8295" cy="15.4091" rx="3.57954" ry="3.40909" fill="#0E0E0E"/>
<circle cx="15.5795" cy="26.4882" r="3.57954" fill="#0E0E0E"/>
<circle cx="38.4206" cy="26.4882" r="3.57954" fill="#481ACA"/>
<ellipse cx="26.8295" cy="37.9091" rx="3.57954" ry="3.40909" fill="#56509B"/>
<path fill-rule="evenodd" clip-rule="evenodd" d="M26.9998 25.1887C28.0149 25.1887 28.8378 24.3844 28.8378 23.3924C28.8378 23.392 28.8378 23.3917 28.8378 23.3914H30.3439V29.9273H23.656V23.3914H25.1617C25.1617 23.3917 25.1617 23.392 25.1617 23.3924C25.1617 24.3844 25.9846 25.1887 26.9998 25.1887Z" fill="#C02727"/>
<path d="M74.8201 19.6592L70.2401 33.6592H66.7601L63.6801 24.1792L60.5001 33.6592H57.0401L52.4401 19.6592H55.8001L58.9601 29.4992L62.2601 19.6592H65.2601L68.4601 29.5792L71.7201 19.6592H74.8201ZM86.1481 28.3192C86.1481 28.3592 86.1281 28.6392 86.0881 29.1592H77.9481C78.0948 29.8258 78.4414 30.3525 78.9881 30.7392C79.5348 31.1258 80.2148 31.3192 81.0281 31.3192C81.5881 31.3192 82.0814 31.2392 82.5081 31.0792C82.9481 30.9058 83.3548 30.6392 83.7281 30.2792L85.3881 32.0792C84.3748 33.2392 82.8948 33.8192 80.9481 33.8192C79.7348 33.8192 78.6614 33.5858 77.7281 33.1192C76.7948 32.6392 76.0748 31.9792 75.5681 31.1392C75.0614 30.2992 74.8081 29.3458 74.8081 28.2792C74.8081 27.2258 75.0548 26.2792 75.5481 25.4392C76.0548 24.5858 76.7414 23.9258 77.6081 23.4592C78.4881 22.9792 79.4681 22.7392 80.5481 22.7392C81.6014 22.7392 82.5548 22.9658 83.4081 23.4192C84.2614 23.8725 84.9281 24.5258 85.4081 25.3792C85.9014 26.2192 86.1481 27.1992 86.1481 28.3192ZM80.5681 25.0992C79.8614 25.0992 79.2681 25.2992 78.7881 25.6992C78.3081 26.0992 78.0148 26.6458 77.9081 27.3392H83.2081C83.1014 26.6592 82.8081 26.1192 82.3281 25.7192C81.8481 25.3058 81.2614 25.0992 80.5681 25.0992ZM95.1453 33.8992C93.7186 33.8992 92.4253 33.5925 91.2653 32.9792C90.1186 32.3525 89.2119 31.4925 88.5453 30.3992C87.8919 29.2925 87.5653 28.0458 87.5653 26.6592C87.5653 25.2725 87.8919 24.0325 88.5453 22.9392C89.2119 21.8325 90.1186 20.9725 91.2653 20.3592C92.4253 19.7325 93.7253 19.4192 95.1653 19.4192C96.3786 19.4192 97.4719 19.6325 98.4453 20.0592C99.4319 20.4858 100.259 21.0992 100.925 21.8992L98.8453 23.8192C97.8986 22.7258 96.7253 22.1792 95.3253 22.1792C94.4586 22.1792 93.6853 22.3725 93.0053 22.7592C92.3253 23.1325 91.7919 23.6592 91.4053 24.3392C91.0319 25.0192 90.8453 25.7925 90.8453 26.6592C90.8453 27.5258 91.0319 28.2992 91.4053 28.9792C91.7919 29.6592 92.3253 30.1925 93.0053 30.5792C93.6853 30.9525 94.4586 31.1392 95.3253 31.1392C96.7253 31.1392 97.8986 30.5858 98.8453 29.4792L100.925 31.3992C100.259 32.2125 99.4319 32.8325 98.4453 33.2592C97.4586 33.6858 96.3586 33.8992 95.1453 33.8992ZM107.642 33.8192C106.509 33.8192 105.489 33.5858 104.582 33.1192C103.689 32.6392 102.989 31.9792 102.482 31.1392C101.975 30.2992 101.722 29.3458 101.722 28.2792C101.722 27.2125 101.975 26.2592 102.482 25.4192C102.989 24.5792 103.689 23.9258 104.582 23.4592C105.489 22.9792 106.509 22.7392 107.642 22.7392C108.775 22.7392 109.789 22.9792 110.682 23.4592C111.575 23.9258 112.275 24.5792 112.782 25.4192C113.289 26.2592 113.542 27.2125 113.542 28.2792C113.542 29.3458 113.289 30.2992 112.782 31.1392C112.275 31.9792 111.575 32.6392 110.682 33.1192C109.789 33.5858 108.775 33.8192 107.642 33.8192ZM107.642 31.2592C108.442 31.2592 109.095 30.9925 109.602 30.4592C110.122 29.9125 110.382 29.1858 110.382 28.2792C110.382 27.3725 110.122 26.6525 109.602 26.1192C109.095 25.5725 108.442 25.2992 107.642 25.2992C106.842 25.2992 106.182 25.5725 105.662 26.1192C105.142 26.6525 104.882 27.3725 104.882 28.2792C104.882 29.1858 105.142 29.9125 105.662 30.4592C106.182 30.9925 106.842 31.2592 107.642 31.2592ZM115.628 18.8192H118.748V33.6592H115.628V18.8192ZM121.643 18.8192H124.763V33.6592H121.643V18.8192ZM138.199 28.3192C138.199 28.3592 138.179 28.6392 138.139 29.1592H129.999C130.146 29.8258 130.492 30.3525 131.039 30.7392C131.586 31.1258 132.266 31.3192 133.079 31.3192C133.639 31.3192 134.132 31.2392 134.559 31.0792C134.999 30.9058 135.406 30.6392 135.779 30.2792L137.439 32.0792C136.426 33.2392 134.946 33.8192 132.999 33.8192C131.786 33.8192 130.712 33.5858 129.779 33.1192C128.846 32.6392 128.126 31.9792 127.619 31.1392C127.112 30.2992 126.859 29.3458 126.859 28.2792C126.859 27.2258 127.106 26.2792 127.599 25.4392C128.106 24.5858 128.792 23.9258 129.659 23.4592C130.539 22.9792 131.519 22.7392 132.599 22.7392C133.652 22.7392 134.606 22.9658 135.459 23.4192C136.312 23.8725 136.979 24.5258 137.459 25.3792C137.952 26.2192 138.199 27.1992 138.199 28.3192ZM132.619 25.0992C131.912 25.0992 131.319 25.2992 130.839 25.6992C130.359 26.0992 130.066 26.6458 129.959 27.3392H135.259C135.152 26.6592 134.859 26.1192 134.379 25.7192C133.899 25.3058 133.312 25.0992 132.619 25.0992ZM145.476 33.8192C144.329 33.8192 143.296 33.5858 142.376 33.1192C141.469 32.6392 140.756 31.9792 140.236 31.1392C139.729 30.2992 139.476 29.3458 139.476 28.2792C139.476 27.2125 139.729 26.2592 140.236 25.4192C140.756 24.5792 141.469 23.9258 142.376 23.4592C143.296 22.9792 144.329 22.7392 145.476 22.7392C146.609 22.7392 147.596 22.9792 148.436 23.4592C149.289 23.9258 149.909 24.5992 150.296 25.4792L147.876 26.7792C147.316 25.7925 146.509 25.2992 145.456 25.2992C144.643 25.2992 143.969 25.5658 143.436 26.0992C142.903 26.6325 142.636 27.3592 142.636 28.2792C142.636 29.1992 142.903 29.9258 143.436 30.4592C143.969 30.9925 144.643 31.2592 145.456 31.2592C146.523 31.2592 147.329 30.7658 147.876 29.7792L150.296 31.0992C149.909 31.9525 149.289 32.6192 148.436 33.0992C147.596 33.5792 146.609 33.8192 145.476 33.8192ZM159.189 33.1392C158.882 33.3658 158.502 33.5392 158.049 33.6592C157.609 33.7658 157.142 33.8192 156.649 33.8192C155.369 33.8192 154.375 33.4925 153.669 32.8392C152.975 32.1858 152.629 31.2258 152.629 29.9592V25.5392H150.969V23.1392H152.629V20.5192H155.749V23.1392H158.429V25.5392H155.749V29.9192C155.749 30.3725 155.862 30.7258 156.089 30.9792C156.329 31.2192 156.662 31.3392 157.089 31.3392C157.582 31.3392 158.002 31.2058 158.349 30.9392L159.189 33.1392Z" fill="#4747D6"/>
</svg>
