<svg width="200" height="150" viewBox="0 0 200 150" fill="none" xmlns="http://www.w3.org/2000/svg">
<g clip-path="url(#clip0_1_340)">
<path d="M176.62 145.839L173.274 145.839L171.682 132.046L176.62 132.046L176.62 145.839Z" fill="#FFB8B8"/>
<path d="M177.473 149.306L166.684 149.305V149.159C166.684 147.969 167.127 146.828 167.914 145.986C168.702 145.144 169.77 144.671 170.884 144.671H170.884L177.473 144.672L177.473 149.306Z" fill="#2F2E41"/>
<path d="M191.388 137.047L189.216 139.768L178.365 132.108L181.57 128.094L191.388 137.047Z" fill="#FFB8B8"/>
<path d="M194.409 138.603L187.406 147.375L187.302 147.28C186.455 146.507 185.929 145.407 185.842 144.22C185.754 143.034 186.11 141.858 186.833 140.953L186.833 140.953L191.111 135.595L194.409 138.603Z" fill="#2F2E41"/>
<path d="M152.862 78.0046L151.821 88.2708L193.924 87.629L175.563 55.6527L160.571 55.0771L152.862 78.0046Z" fill="#2F2E41"/>
<path opacity="0.28" d="M152.862 78.0046L151.821 88.2708L193.924 87.629L175.563 55.6527L160.571 55.0771L152.862 78.0046Z" fill="black"/>
<path d="M161.142 79.7673L159.655 89.1609V97.5573L171.64 101.738C171.64 101.738 170.237 134.352 172.107 136.429L172.061 141.443L177.289 141.697L177.332 138.168L179.548 111.79L180.854 92.4232L178.737 77.7399L161.142 79.7673Z" fill="black"/>
<path d="M170.426 87.8531L159.655 97.5571C159.655 97.5571 159.025 115.065 160.626 117.118C162.001 118.882 179.884 134.093 179.884 134.093C179.884 134.093 183.062 137.209 184.843 137.259C186.624 137.308 188.696 133.315 188.696 133.315L184.571 129.966C184.571 129.966 173.884 119.304 170.711 115.065C169.43 113.354 169.43 113.183 169.43 113.183L169.868 106.068L174.27 92.8624L170.426 87.8531Z" fill="black"/>
<path d="M158.99 41.3712L154.346 40.9125L150.134 41.6628L141.214 41.6658L140.454 48.5753L148.594 50.5222L150.578 49.4831L158.847 52.8503L158.99 41.3712Z" fill="#2F2E41"/>
<path d="M164.537 41.3492C164.537 41.3492 174.393 40.3622 176.634 42.2443C178.876 44.1264 183.678 81.4264 183.678 81.4264L164.537 82.581L161.106 80.0576L162.08 61.436L164.537 41.3492Z" fill="#A87A7A"/>
<path d="M167.546 41.1172L156.674 41.3722L146.537 90.3239L154.542 92.2062L167.546 41.1172Z" fill="#2F2E41"/>
<path d="M175.275 40.7031L183.839 43.5679L183.352 63.6806L193.925 87.7268L181.496 89.126L171.672 63.1607L175.275 40.7031Z" fill="#2F2E41"/>
<path d="M189.396 90.1696C189.697 89.8871 189.935 89.5377 190.096 89.146C190.256 88.7543 190.334 88.3298 190.324 87.9024C190.314 87.475 190.216 87.0552 190.038 86.6724C189.86 86.2896 189.606 85.9532 189.293 85.687L191.016 79.2632L187.619 77.1921L185.305 86.3002C184.921 86.8917 184.754 87.6131 184.834 88.3277C184.915 89.0422 185.238 89.7004 185.743 90.1773C186.247 90.6543 186.897 90.9169 187.571 90.9155C188.244 90.9141 188.894 90.6487 189.396 90.1696Z" fill="#FFB8B8"/>
<path d="M178.876 44.1267L183.943 43.657C183.943 43.657 188.492 48.7423 189.527 52.6797C190.562 56.6171 191.683 68.9364 191.683 68.9364L191.216 86.9583L185.292 82.6592L184.895 67.158L178.876 44.1267Z" fill="#2F2E41"/>
<path d="M177.653 35.0684C179.556 31.348 178.277 26.6833 174.796 24.6495C171.315 22.6158 166.95 23.9831 165.047 27.7035C163.144 31.4239 164.424 36.0886 167.905 38.1224C171.386 40.1562 175.75 38.7889 177.653 35.0684Z" fill="#FFB8B8"/>
<path d="M170.549 28.1809C169.607 27.9482 168.629 28.2061 167.674 28.3733C166.72 28.5405 165.668 28.5956 164.86 28.0264C164.264 27.606 163.897 26.9105 163.553 26.2415C163.409 26.0026 163.313 25.7345 163.272 25.454C163.231 24.9593 163.526 24.5079 163.838 24.1405C165.291 22.4341 167.413 21.5001 169.554 21.2034C171.319 20.9223 173.123 21.1576 174.773 21.8846C176.398 22.6463 177.795 24.0411 178.433 25.8103C178.728 26.7158 178.911 27.658 178.98 28.6137C179.077 29.3169 179.089 30.0304 179.017 30.7369C178.931 31.2606 178.802 31.7753 178.632 32.275L177.574 35.6902C177.498 36.0129 177.356 36.3136 177.158 36.5705C177.056 36.6964 176.919 36.7836 176.767 36.8192C176.615 36.8548 176.456 36.8368 176.315 36.7679C176.399 36.397 176.412 36.0114 176.353 35.635C176.319 35.4474 176.235 35.2746 176.109 35.1391C175.983 35.0035 175.822 34.9113 175.647 34.8743C175.257 34.8301 174.924 35.1532 174.554 35.2924C174.384 35.346 174.207 35.3635 174.031 35.3438C173.855 35.3241 173.685 35.2677 173.53 35.1776C173.375 35.0876 173.237 34.9657 173.126 34.8191C173.015 34.6724 172.932 34.5037 172.882 34.3227C172.872 34.2863 172.863 34.2494 172.856 34.2121C172.797 33.8217 172.895 33.4037 172.757 33.0371C172.595 32.6075 172.164 32.3824 171.841 32.0737C171.546 31.7828 171.335 31.408 171.233 30.9933C171.13 30.5786 171.141 30.1413 171.263 29.7327C171.349 29.4485 171.594 29.3193 171.545 28.9928C171.481 28.5644 170.89 28.2649 170.549 28.1809Z" fill="#2F2E41"/>
<path d="M90.6883 60.6338H0V0H90.6883V60.6338Z" fill="white"/>
<path d="M90.6883 60.6338H0V0H90.6883V60.6338ZM0.414103 60.1912H90.2741V0.442583H0.414103V60.1912Z" fill="#3F3D56"/>
<path d="M79.6109 144.614H27.8481V83.9805H79.6109V144.614Z" fill="white"/>
<path d="M79.6109 144.614H27.8481V83.9805H79.6109V144.614ZM28.2622 144.172H79.1968V84.423H28.2622V144.172Z" fill="#3F3D56"/>
<path d="M72.5713 138.887H61.8047V139.354H72.5713V138.887Z" fill="#3F3D56"/>
<path d="M72.5713 140.287H61.8046V140.753H72.5713V140.287Z" fill="#3F3D56"/>
<path d="M72.5713 141.686H61.8047V142.152H72.5713V141.686Z" fill="#3F3D56"/>
<path d="M53.7299 94.8232V99.6916C56.4326 99.6916 59.0747 100.548 61.3219 102.153C63.5692 103.758 65.3207 106.039 66.355 108.708C67.3893 111.376 67.6599 114.313 67.1326 117.146C66.6054 119.979 65.3039 122.582 63.3927 124.624L66.6137 128.067C69.1619 125.343 70.8972 121.873 71.6002 118.096C72.3033 114.318 71.9425 110.403 70.5634 106.845C69.1843 103.286 66.849 100.245 63.8526 98.1051C60.8563 95.9653 57.3335 94.8232 53.7299 94.8232Z" fill="#E6E6E6"/>
<path d="M66.6136 128.067L63.3926 124.624C61.0563 127.122 57.9522 128.63 54.6553 128.869C51.3585 129.108 48.0924 128.061 45.462 125.924L42.705 129.801C46.2127 132.65 50.5677 134.045 54.9635 133.726C59.3593 133.407 63.4981 131.397 66.6136 128.067Z" fill="#575A89"/>
<path d="M40.0643 114.297C40.0643 112.379 40.4177 110.48 41.1045 108.708C41.7912 106.936 42.7978 105.326 44.0668 103.969C45.3357 102.613 46.8422 101.537 48.5001 100.803C50.1581 100.069 51.9351 99.6916 53.7296 99.6916V94.8232C49.9154 94.8232 46.1973 96.1025 43.0995 98.4808C40.0016 100.859 37.6803 104.217 36.4626 108.08C35.2449 111.943 35.1923 116.117 36.3122 120.014C37.4321 123.911 39.6681 127.334 42.7049 129.801L45.4619 125.924C43.7832 124.563 42.4223 122.805 41.4858 120.788C40.5493 118.77 40.0628 116.549 40.0643 114.297Z" fill="#6C63FF"/>
<path d="M156.22 106.994H104.457V46.3601H156.22V106.994Z" fill="white"/>
<path d="M156.22 106.994H104.457V46.3601H156.22V106.994ZM104.871 106.551H155.806V46.8027H104.871V106.551Z" fill="#3F3D56"/>
<path d="M121.228 83.4265H111.911V99.3595H121.228V83.4265Z" fill="#575A89"/>
<path d="M134.687 72.5835H125.369V99.3597H134.687V72.5835Z" fill="#E6E6E6"/>
<path d="M148.145 59.9703H138.828V99.3602H148.145V59.9703Z" fill="#6C63FF"/>
<path d="M151.25 99.8025H109.426V53.5525H109.84V99.3598H151.25V99.8025Z" fill="#3F3D56"/>
<path d="M141.167 47.9748C142.742 47.9748 144.019 46.6102 144.019 44.9269C144.019 43.2436 142.742 41.879 141.167 41.879C139.592 41.879 138.315 43.2436 138.315 44.9269C138.315 46.6102 139.592 47.9748 141.167 47.9748Z" fill="#FFB8B8"/>
<path d="M199.763 149.6H155.323C155.26 149.6 155.199 149.573 155.155 149.526C155.11 149.478 155.085 149.413 155.085 149.346C155.085 149.279 155.11 149.214 155.155 149.166C155.199 149.119 155.26 149.092 155.323 149.092H199.763C199.826 149.092 199.886 149.119 199.931 149.166C199.975 149.214 200 149.279 200 149.346C200 149.413 199.975 149.478 199.931 149.526C199.886 149.573 199.826 149.6 199.763 149.6Z" fill="#CCCCCC"/>
<path d="M78.094 47.953H12.5946C12.5403 47.953 12.4881 47.9299 12.4497 47.8888C12.4112 47.8477 12.3897 47.792 12.3896 47.7339V14.1809C12.3896 14.1228 12.4112 14.067 12.4497 14.026C12.4881 13.9849 12.5403 13.9618 12.5946 13.9618C12.649 13.9618 12.7011 13.9849 12.7396 14.026C12.778 14.067 12.7996 14.1228 12.7996 14.1809V47.5148H78.094C78.121 47.5147 78.1477 47.5203 78.1727 47.5313C78.1976 47.5422 78.2203 47.5584 78.2394 47.5787C78.2585 47.5991 78.2737 47.6233 78.284 47.6499C78.2944 47.6765 78.2997 47.7051 78.2997 47.7339C78.2997 47.7627 78.2944 47.7913 78.284 47.8179C78.2737 47.8445 78.2585 47.8687 78.2394 47.8891C78.2203 47.9094 78.1976 47.9255 78.1727 47.9365C78.1477 47.9475 78.121 47.9531 78.094 47.953Z" fill="#3F3D56"/>
<path d="M26.5887 45.5433H20.6313C20.47 45.5431 20.3153 45.4746 20.2013 45.3526C20.0872 45.2307 20.023 45.0655 20.0228 44.893V36.1159C20.023 35.9435 20.0872 35.7782 20.2013 35.6563C20.3153 35.5343 20.47 35.4658 20.6313 35.4656H26.5887C26.7501 35.4658 26.9047 35.5343 27.0188 35.6563C27.1329 35.7782 27.197 35.9435 27.1972 36.1159V44.893C27.197 45.0654 27.1329 45.2307 27.0188 45.3526C26.9047 45.4746 26.7501 45.5431 26.5887 45.5433Z" fill="#6C63FF"/>
<path d="M37.4531 45.5427H31.4956C31.3343 45.5425 31.1797 45.474 31.0656 45.352C30.9515 45.2301 30.8873 45.0648 30.8871 44.8924V27.7902C30.8873 27.6178 30.9515 27.4525 31.0656 27.3306C31.1797 27.2087 31.3343 27.1401 31.4956 27.1399H37.4531C37.6144 27.1401 37.769 27.2087 37.8831 27.3306C37.9972 27.4525 38.0614 27.6178 38.0616 27.7902V44.8924C38.0614 45.0648 37.9972 45.2301 37.8831 45.352C37.769 45.474 37.6144 45.5425 37.4531 45.5427Z" fill="#6C63FF"/>
<path d="M48.3171 45.5433H42.3597C42.1983 45.5431 42.0437 45.4746 41.9296 45.3526C41.8155 45.2307 41.7514 45.0655 41.7512 44.893V36.1159C41.7514 35.9435 41.8155 35.7782 41.9296 35.6563C42.0437 35.5343 42.1983 35.4658 42.3597 35.4656H48.3171C48.4784 35.4658 48.6331 35.5343 48.7471 35.6563C48.8612 35.7782 48.9254 35.9435 48.9256 36.1159V44.893C48.9254 45.0654 48.8612 45.2307 48.7471 45.3526C48.6331 45.4746 48.4784 45.5431 48.3171 45.5433Z" fill="#6C63FF"/>
<path d="M59.1811 45.5431H53.2237C53.066 45.5467 52.9135 45.4834 52.7994 45.367C52.6853 45.2507 52.6191 45.0907 52.6152 44.9222V24.4749C52.6191 24.3064 52.6853 24.1464 52.7994 24.0301C52.9135 23.9137 53.066 23.8504 53.2237 23.854H59.1811C59.3387 23.8504 59.4913 23.9137 59.6054 24.0301C59.7194 24.1464 59.7857 24.3064 59.7896 24.4749V44.9222C59.7857 45.0907 59.7194 45.2507 59.6054 45.367C59.4913 45.4834 59.3387 45.5467 59.1811 45.5431Z" fill="#6C63FF"/>
<path d="M70.045 45.5433H64.0876C63.9263 45.5431 63.7716 45.4746 63.6576 45.3526C63.5435 45.2307 63.4793 45.0654 63.4791 44.893V18.5894C63.4793 18.417 63.5435 18.2517 63.6576 18.1298C63.7716 18.0079 63.9263 17.9393 64.0876 17.9391H70.045C70.2064 17.9393 70.361 18.0079 70.4751 18.1298C70.5892 18.2517 70.6533 18.417 70.6535 18.5894V44.893C70.6533 45.0654 70.5892 45.2307 70.4751 45.3526C70.361 45.4746 70.2064 45.5431 70.045 45.5433Z" fill="#6C63FF"/>
<path d="M23.6104 32.836C24.2896 32.836 24.8403 32.2475 24.8403 31.5215C24.8403 30.7955 24.2896 30.207 23.6104 30.207C22.9311 30.207 22.3805 30.7955 22.3805 31.5215C22.3805 32.2475 22.9311 32.836 23.6104 32.836Z" fill="#3F3D56"/>
<path d="M34.4744 24.2922C35.1537 24.2922 35.7043 23.7037 35.7043 22.9777C35.7043 22.2517 35.1537 21.6632 34.4744 21.6632C33.7952 21.6632 33.2445 22.2517 33.2445 22.9777C33.2445 23.7037 33.7952 24.2922 34.4744 24.2922Z" fill="#3F3D56"/>
<path d="M45.338 32.836C46.0172 32.836 46.5679 32.2475 46.5679 31.5215C46.5679 30.7955 46.0172 30.207 45.338 30.207C44.6587 30.207 44.1081 30.7955 44.1081 31.5215C44.1081 32.2475 44.6587 32.836 45.338 32.836Z" fill="#3F3D56"/>
<path d="M56.2026 20.1296C56.8818 20.1296 57.4325 19.5411 57.4325 18.8151C57.4325 18.0891 56.8818 17.5006 56.2026 17.5006C55.5233 17.5006 54.9727 18.0891 54.9727 18.8151C54.9727 19.5411 55.5233 20.1296 56.2026 20.1296Z" fill="#3F3D56"/>
<path d="M67.0667 15.3094C67.746 15.3094 68.2966 14.7209 68.2966 13.9949C68.2966 13.2689 67.746 12.6804 67.0667 12.6804C66.3874 12.6804 65.8368 13.2689 65.8368 13.9949C65.8368 14.7209 66.3874 15.3094 67.0667 15.3094Z" fill="#3F3D56"/>
<path d="M45.3642 31.8165L34.4743 23.0988L23.733 31.6974L23.4872 31.3466L34.4743 22.5512L45.3124 31.2275L56.0827 18.6309L56.1259 18.6121L66.9899 13.9336L67.1432 14.3402L56.3222 18.9999L45.3642 31.8165Z" fill="#3F3D56"/>
</g>
<defs>
<clipPath id="clip0_1_340">
<rect width="200" height="149.6" fill="white"/>
</clipPath>
</defs>
</svg>
