<svg width="499" height="294" viewBox="0 0 499 294" fill="none" xmlns="http://www.w3.org/2000/svg">
<circle cx="22" cy="22" r="22" fill="#4747D6" fill-opacity="0.8"/>
<path d="M24.18 15V29H20.94V17.6H18.14V15H24.18Z" fill="white"/>
<circle cx="22" cy="142" r="22" fill="#4747D6" fill-opacity="0.8"/>
<path d="M27.24 146.36V149H16.66V146.9L22.06 141.8C22.6333 141.253 23.02 140.787 23.22 140.4C23.42 140 23.52 139.607 23.52 139.22C23.52 138.66 23.3267 138.233 22.94 137.94C22.5667 137.633 22.0133 137.48 21.28 137.48C20.6667 137.48 20.1133 137.6 19.62 137.84C19.1267 138.067 18.7133 138.413 18.38 138.88L16.02 137.36C16.5667 136.547 17.32 135.913 18.28 135.46C19.24 134.993 20.34 134.76 21.58 134.76C22.62 134.76 23.5267 134.933 24.3 135.28C25.0867 135.613 25.6933 136.093 26.12 136.72C26.56 137.333 26.78 138.06 26.78 138.9C26.78 139.66 26.62 140.373 26.3 141.04C25.98 141.707 25.36 142.467 24.44 143.32L21.22 146.36H27.24Z" fill="white"/>
<circle cx="22" cy="262" r="22" fill="#4747D6" fill-opacity="0.8"/>
<path d="M23.32 260.7C24.5467 260.9 25.4867 261.36 26.14 262.08C26.7933 262.787 27.12 263.667 27.12 264.72C27.12 265.533 26.9067 266.287 26.48 266.98C26.0533 267.66 25.4 268.207 24.52 268.62C23.6533 269.033 22.5867 269.24 21.32 269.24C20.3333 269.24 19.36 269.113 18.4 268.86C17.4533 268.593 16.6467 268.22 15.98 267.74L17.24 265.26C17.7733 265.66 18.3867 265.973 19.08 266.2C19.7867 266.413 20.5067 266.52 21.24 266.52C22.0533 266.52 22.6933 266.367 23.16 266.06C23.6267 265.74 23.86 265.293 23.86 264.72C23.86 263.573 22.9867 263 21.24 263H19.76V260.86L22.64 257.6H16.68V255H26.48V257.1L23.32 260.7Z" fill="white"/>
<path d="M22 57V107" stroke="#333333" stroke-width="0.5" stroke-linecap="round"/>
<path d="M22 177V227" stroke="#333333" stroke-width="0.5" stroke-linecap="round"/>
<path d="M72.52 13.2H79.6C81.376 13.2 82.952 13.552 84.328 14.256C85.704 14.96 86.768 15.952 87.52 17.232C88.288 18.496 88.672 19.952 88.672 21.6C88.672 23.248 88.288 24.712 87.52 25.992C86.768 27.256 85.704 28.24 84.328 28.944C82.952 29.648 81.376 30 79.6 30H72.52V13.2ZM79.456 27.912C80.816 27.912 82.008 27.648 83.032 27.12C84.072 26.592 84.872 25.856 85.432 24.912C85.992 23.952 86.272 22.848 86.272 21.6C86.272 20.352 85.992 19.256 85.432 18.312C84.872 17.352 84.072 16.608 83.032 16.08C82.008 15.552 80.816 15.288 79.456 15.288H74.92V27.912H79.456ZM97.4601 30.144C96.1961 30.144 95.0601 29.864 94.0521 29.304C93.0441 28.744 92.2521 27.976 91.6761 27C91.1161 26.008 90.8361 24.888 90.8361 23.64C90.8361 22.392 91.1161 21.28 91.6761 20.304C92.2521 19.312 93.0441 18.544 94.0521 18C95.0601 17.44 96.1961 17.16 97.4601 17.16C98.7241 17.16 99.8521 17.44 100.844 18C101.852 18.544 102.636 19.312 103.196 20.304C103.772 21.28 104.06 22.392 104.06 23.64C104.06 24.888 103.772 26.008 103.196 27C102.636 27.976 101.852 28.744 100.844 29.304C99.8521 29.864 98.7241 30.144 97.4601 30.144ZM97.4601 28.128C98.2761 28.128 99.0041 27.944 99.6441 27.576C100.3 27.192 100.812 26.664 101.18 25.992C101.548 25.304 101.732 24.52 101.732 23.64C101.732 22.76 101.548 21.984 101.18 21.312C100.812 20.624 100.3 20.096 99.6441 19.728C99.0041 19.36 98.2761 19.176 97.4601 19.176C96.6441 19.176 95.9081 19.36 95.2521 19.728C94.6121 20.096 94.1001 20.624 93.7161 21.312C93.3481 21.984 93.1641 22.76 93.1641 23.64C93.1641 24.52 93.3481 25.304 93.7161 25.992C94.1001 26.664 94.6121 27.192 95.2521 27.576C95.9081 27.944 96.6441 28.128 97.4601 28.128ZM126.143 17.28L121.391 30H119.183L115.511 20.352L111.791 30H109.583L104.855 17.28H107.039L110.735 27.408L114.575 17.28H116.519L120.287 27.456L124.079 17.28H126.143ZM135.273 17.16C136.889 17.16 138.169 17.632 139.113 18.576C140.073 19.504 140.553 20.872 140.553 22.68V30H138.249V22.944C138.249 21.712 137.953 20.784 137.361 20.16C136.769 19.536 135.921 19.224 134.817 19.224C133.569 19.224 132.585 19.592 131.865 20.328C131.145 21.048 130.785 22.088 130.785 23.448V30H128.481V17.28H130.689V19.2C131.153 18.544 131.777 18.04 132.561 17.688C133.361 17.336 134.265 17.16 135.273 17.16ZM144.817 12.192H147.121V30H144.817V12.192ZM156.968 30.144C155.704 30.144 154.568 29.864 153.56 29.304C152.552 28.744 151.76 27.976 151.184 27C150.624 26.008 150.344 24.888 150.344 23.64C150.344 22.392 150.624 21.28 151.184 20.304C151.76 19.312 152.552 18.544 153.56 18C154.568 17.44 155.704 17.16 156.968 17.16C158.232 17.16 159.36 17.44 160.352 18C161.36 18.544 162.144 19.312 162.704 20.304C163.28 21.28 163.568 22.392 163.568 23.64C163.568 24.888 163.28 26.008 162.704 27C162.144 27.976 161.36 28.744 160.352 29.304C159.36 29.864 158.232 30.144 156.968 30.144ZM156.968 28.128C157.784 28.128 158.512 27.944 159.152 27.576C159.808 27.192 160.32 26.664 160.688 25.992C161.056 25.304 161.24 24.52 161.24 23.64C161.24 22.76 161.056 21.984 160.688 21.312C160.32 20.624 159.808 20.096 159.152 19.728C158.512 19.36 157.784 19.176 156.968 19.176C156.152 19.176 155.416 19.36 154.76 19.728C154.12 20.096 153.608 20.624 153.224 21.312C152.856 21.984 152.672 22.76 152.672 23.64C152.672 24.52 152.856 25.304 153.224 25.992C153.608 26.664 154.12 27.192 154.76 27.576C155.416 27.944 156.152 28.128 156.968 28.128ZM171.269 17.16C173.029 17.16 174.373 17.592 175.301 18.456C176.245 19.32 176.717 20.608 176.717 22.32V30H174.533V28.32C174.149 28.912 173.597 29.368 172.877 29.688C172.173 29.992 171.333 30.144 170.357 30.144C168.933 30.144 167.789 29.8 166.925 29.112C166.077 28.424 165.653 27.52 165.653 26.4C165.653 25.28 166.061 24.384 166.877 23.712C167.693 23.024 168.989 22.68 170.765 22.68H174.413V22.224C174.413 21.232 174.125 20.472 173.549 19.944C172.973 19.416 172.125 19.152 171.005 19.152C170.253 19.152 169.517 19.28 168.797 19.536C168.077 19.776 167.469 20.104 166.973 20.52L166.013 18.792C166.669 18.264 167.453 17.864 168.365 17.592C169.277 17.304 170.245 17.16 171.269 17.16ZM170.741 28.368C171.621 28.368 172.381 28.176 173.021 27.792C173.661 27.392 174.125 26.832 174.413 26.112V24.336H170.861C168.909 24.336 167.933 24.992 167.933 26.304C167.933 26.944 168.181 27.448 168.677 27.816C169.173 28.184 169.861 28.368 170.741 28.368ZM193.051 12.192V30H190.843V27.984C190.331 28.688 189.683 29.224 188.899 29.592C188.115 29.96 187.251 30.144 186.307 30.144C185.075 30.144 183.971 29.872 182.995 29.328C182.019 28.784 181.251 28.024 180.691 27.048C180.147 26.056 179.875 24.92 179.875 23.64C179.875 22.36 180.147 21.232 180.691 20.256C181.251 19.28 182.019 18.52 182.995 17.976C183.971 17.432 185.075 17.16 186.307 17.16C187.219 17.16 188.059 17.336 188.827 17.688C189.595 18.024 190.235 18.528 190.747 19.2V12.192H193.051ZM186.499 28.128C187.299 28.128 188.027 27.944 188.683 27.576C189.339 27.192 189.851 26.664 190.219 25.992C190.587 25.304 190.771 24.52 190.771 23.64C190.771 22.76 190.587 21.984 190.219 21.312C189.851 20.624 189.339 20.096 188.683 19.728C188.027 19.36 187.299 19.176 186.499 19.176C185.683 19.176 184.947 19.36 184.291 19.728C183.651 20.096 183.139 20.624 182.755 21.312C182.387 21.984 182.203 22.76 182.203 23.64C182.203 24.52 182.387 25.304 182.755 25.992C183.139 26.664 183.651 27.192 184.291 27.576C184.947 27.944 185.683 28.128 186.499 28.128ZM214.896 25.8H205.968L204.12 30H201.648L209.256 13.2H211.632L219.264 30H216.744L214.896 25.8ZM214.056 23.88L210.432 15.648L206.808 23.88H214.056ZM228.178 17.16C229.41 17.16 230.514 17.432 231.49 17.976C232.466 18.52 233.226 19.28 233.77 20.256C234.33 21.232 234.61 22.36 234.61 23.64C234.61 24.92 234.33 26.056 233.77 27.048C233.226 28.024 232.466 28.784 231.49 29.328C230.514 29.872 229.41 30.144 228.178 30.144C227.266 30.144 226.426 29.968 225.658 29.616C224.906 29.264 224.266 28.752 223.738 28.08V34.656H221.434V17.28H223.642V19.296C224.154 18.592 224.802 18.064 225.586 17.712C226.37 17.344 227.234 17.16 228.178 17.16ZM227.986 28.128C228.802 28.128 229.53 27.944 230.17 27.576C230.826 27.192 231.338 26.664 231.706 25.992C232.09 25.304 232.282 24.52 232.282 23.64C232.282 22.76 232.09 21.984 231.706 21.312C231.338 20.624 230.826 20.096 230.17 19.728C229.53 19.36 228.802 19.176 227.986 19.176C227.186 19.176 226.458 19.368 225.802 19.752C225.162 20.12 224.65 20.64 224.266 21.312C223.898 21.984 223.714 22.76 223.714 23.64C223.714 24.52 223.898 25.304 224.266 25.992C224.634 26.664 225.146 27.192 225.802 27.576C226.458 27.944 227.186 28.128 227.986 28.128ZM244.537 17.16C245.769 17.16 246.873 17.432 247.849 17.976C248.825 18.52 249.585 19.28 250.129 20.256C250.689 21.232 250.969 22.36 250.969 23.64C250.969 24.92 250.689 26.056 250.129 27.048C249.585 28.024 248.825 28.784 247.849 29.328C246.873 29.872 245.769 30.144 244.537 30.144C243.625 30.144 242.785 29.968 242.017 29.616C241.265 29.264 240.625 28.752 240.097 28.08V34.656H237.793V17.28H240.001V19.296C240.513 18.592 241.161 18.064 241.945 17.712C242.729 17.344 243.593 17.16 244.537 17.16ZM244.345 28.128C245.161 28.128 245.889 27.944 246.529 27.576C247.185 27.192 247.697 26.664 248.065 25.992C248.449 25.304 248.641 24.52 248.641 23.64C248.641 22.76 248.449 21.984 248.065 21.312C247.697 20.624 247.185 20.096 246.529 19.728C245.889 19.36 245.161 19.176 244.345 19.176C243.545 19.176 242.817 19.368 242.161 19.752C241.521 20.12 241.009 20.64 240.625 21.312C240.257 21.984 240.073 22.76 240.073 23.64C240.073 24.52 240.257 25.304 240.625 25.992C240.993 26.664 241.505 27.192 242.161 27.576C242.817 27.944 243.545 28.128 244.345 28.128ZM83.752 150L80.128 144.84C79.68 144.872 79.328 144.888 79.072 144.888H74.92V150H72.52V133.2H79.072C81.248 133.2 82.96 133.72 84.208 134.76C85.456 135.8 86.08 137.232 86.08 139.056C86.08 140.352 85.76 141.456 85.12 142.368C84.48 143.28 83.568 143.944 82.384 144.36L86.368 150H83.752ZM79 142.848C80.52 142.848 81.68 142.52 82.48 141.864C83.28 141.208 83.68 140.272 83.68 139.056C83.68 137.84 83.28 136.912 82.48 136.272C81.68 135.616 80.52 135.288 79 135.288H74.92V142.848H79ZM101.118 143.712C101.118 143.888 101.102 144.12 101.07 144.408H90.7495C90.8935 145.528 91.3815 146.432 92.2135 147.12C93.0615 147.792 94.1095 148.128 95.3575 148.128C96.8775 148.128 98.1015 147.616 99.0295 146.592L100.302 148.08C99.7255 148.752 99.0055 149.264 98.1415 149.616C97.2935 149.968 96.3415 150.144 95.2855 150.144C93.9415 150.144 92.7495 149.872 91.7095 149.328C90.6695 148.768 89.8615 147.992 89.2855 147C88.7255 146.008 88.4455 144.888 88.4455 143.64C88.4455 142.408 88.7175 141.296 89.2615 140.304C89.8215 139.312 90.5815 138.544 91.5415 138C92.5175 137.44 93.6135 137.16 94.8295 137.16C96.0455 137.16 97.1255 137.44 98.0695 138C99.0295 138.544 99.7735 139.312 100.302 140.304C100.846 141.296 101.118 142.432 101.118 143.712ZM94.8295 139.104C93.7255 139.104 92.7975 139.44 92.0455 140.112C91.3095 140.784 90.8775 141.664 90.7495 142.752H98.9095C98.7815 141.68 98.3415 140.808 97.5895 140.136C96.8535 139.448 95.9335 139.104 94.8295 139.104ZM116.485 137.28V148.272C116.485 150.496 115.933 152.136 114.829 153.192C113.725 154.264 112.077 154.8 109.885 154.8C108.685 154.8 107.541 154.632 106.453 154.296C105.365 153.976 104.485 153.512 103.813 152.904L104.917 151.128C105.509 151.64 106.237 152.04 107.101 152.328C107.981 152.632 108.885 152.784 109.813 152.784C111.301 152.784 112.397 152.432 113.101 151.728C113.821 151.024 114.181 149.952 114.181 148.512V147.504C113.637 148.16 112.965 148.656 112.165 148.992C111.381 149.312 110.525 149.472 109.597 149.472C108.381 149.472 107.277 149.216 106.285 148.704C105.309 148.176 104.541 147.448 103.981 146.52C103.421 145.576 103.141 144.504 103.141 143.304C103.141 142.104 103.421 141.04 103.981 140.112C104.541 139.168 105.309 138.44 106.285 137.928C107.277 137.416 108.381 137.16 109.597 137.16C110.557 137.16 111.445 137.336 112.261 137.688C113.093 138.04 113.773 138.56 114.301 139.248V137.28H116.485ZM109.861 147.456C110.693 147.456 111.437 147.28 112.093 146.928C112.765 146.576 113.285 146.088 113.653 145.464C114.037 144.824 114.229 144.104 114.229 143.304C114.229 142.072 113.821 141.08 113.005 140.328C112.189 139.56 111.141 139.176 109.861 139.176C108.565 139.176 107.509 139.56 106.693 140.328C105.877 141.08 105.469 142.072 105.469 143.304C105.469 144.104 105.653 144.824 106.021 145.464C106.405 146.088 106.925 146.576 107.581 146.928C108.253 147.28 109.013 147.456 109.861 147.456ZM120.887 137.28H123.191V150H120.887V137.28ZM122.039 134.832C121.591 134.832 121.215 134.688 120.911 134.4C120.623 134.112 120.479 133.76 120.479 133.344C120.479 132.928 120.623 132.576 120.911 132.288C121.215 131.984 121.591 131.832 122.039 131.832C122.487 131.832 122.855 131.976 123.143 132.264C123.447 132.536 123.599 132.88 123.599 133.296C123.599 133.728 123.447 134.096 123.143 134.4C122.855 134.688 122.487 134.832 122.039 134.832ZM131.238 150.144C130.198 150.144 129.198 150.008 128.238 149.736C127.278 149.448 126.526 149.088 125.982 148.656L126.942 146.832C127.502 147.232 128.182 147.552 128.982 147.792C129.782 148.032 130.59 148.152 131.406 148.152C133.422 148.152 134.43 147.576 134.43 146.424C134.43 146.04 134.294 145.736 134.022 145.512C133.75 145.288 133.406 145.128 132.99 145.032C132.59 144.92 132.014 144.8 131.262 144.672C130.238 144.512 129.398 144.328 128.742 144.12C128.102 143.912 127.55 143.56 127.086 143.064C126.622 142.568 126.39 141.872 126.39 140.976C126.39 139.824 126.87 138.904 127.83 138.216C128.79 137.512 130.078 137.16 131.694 137.16C132.542 137.16 133.39 137.264 134.238 137.472C135.086 137.68 135.782 137.96 136.326 138.312L135.342 140.136C134.302 139.464 133.078 139.128 131.67 139.128C130.694 139.128 129.95 139.288 129.438 139.608C128.926 139.928 128.67 140.352 128.67 140.88C128.67 141.296 128.814 141.624 129.102 141.864C129.39 142.104 129.742 142.28 130.158 142.392C130.59 142.504 131.19 142.632 131.958 142.776C132.982 142.952 133.806 143.144 134.43 143.352C135.07 143.544 135.614 143.88 136.062 144.36C136.51 144.84 136.734 145.512 136.734 146.376C136.734 147.528 136.238 148.448 135.246 149.136C134.27 149.808 132.934 150.144 131.238 150.144ZM146.766 149.256C146.43 149.544 146.014 149.768 145.518 149.928C145.022 150.072 144.51 150.144 143.982 150.144C142.702 150.144 141.71 149.8 141.006 149.112C140.302 148.424 139.95 147.44 139.95 146.16V139.176H137.79V137.28H139.95V134.496H142.254V137.28H145.902V139.176H142.254V146.064C142.254 146.752 142.422 147.28 142.758 147.648C143.11 148.016 143.606 148.2 144.246 148.2C144.95 148.2 145.55 148 146.046 147.6L146.766 149.256ZM160.625 143.712C160.625 143.888 160.609 144.12 160.577 144.408H150.257C150.401 145.528 150.889 146.432 151.721 147.12C152.569 147.792 153.617 148.128 154.865 148.128C156.385 148.128 157.609 147.616 158.537 146.592L159.809 148.08C159.233 148.752 158.513 149.264 157.649 149.616C156.801 149.968 155.849 150.144 154.793 150.144C153.449 150.144 152.257 149.872 151.217 149.328C150.177 148.768 149.369 147.992 148.793 147C148.233 146.008 147.953 144.888 147.953 143.64C147.953 142.408 148.225 141.296 148.769 140.304C149.329 139.312 150.089 138.544 151.049 138C152.025 137.44 153.121 137.16 154.337 137.16C155.553 137.16 156.633 137.44 157.577 138C158.537 138.544 159.281 139.312 159.809 140.304C160.353 141.296 160.625 142.432 160.625 143.712ZM154.337 139.104C153.233 139.104 152.305 139.44 151.553 140.112C150.817 140.784 150.385 141.664 150.257 142.752H158.417C158.289 141.68 157.849 140.808 157.097 140.136C156.361 139.448 155.441 139.104 154.337 139.104ZM166.033 139.416C166.433 138.68 167.025 138.12 167.809 137.736C168.593 137.352 169.545 137.16 170.665 137.16V139.392C170.537 139.376 170.361 139.368 170.137 139.368C168.889 139.368 167.905 139.744 167.185 140.496C166.481 141.232 166.129 142.288 166.129 143.664V150H163.825V137.28H166.033V139.416ZM184.746 137.16C186.506 137.16 187.85 137.592 188.778 138.456C189.722 139.32 190.194 140.608 190.194 142.32V150H188.01V148.32C187.626 148.912 187.074 149.368 186.354 149.688C185.65 149.992 184.81 150.144 183.834 150.144C182.41 150.144 181.266 149.8 180.402 149.112C179.554 148.424 179.13 147.52 179.13 146.4C179.13 145.28 179.538 144.384 180.354 143.712C181.17 143.024 182.466 142.68 184.242 142.68H187.89V142.224C187.89 141.232 187.602 140.472 187.026 139.944C186.45 139.416 185.602 139.152 184.482 139.152C183.73 139.152 182.994 139.28 182.274 139.536C181.554 139.776 180.946 140.104 180.45 140.52L179.49 138.792C180.146 138.264 180.93 137.864 181.842 137.592C182.754 137.304 183.722 137.16 184.746 137.16ZM184.218 148.368C185.098 148.368 185.858 148.176 186.498 147.792C187.138 147.392 187.602 146.832 187.89 146.112V144.336H184.338C182.386 144.336 181.41 144.992 181.41 146.304C181.41 146.944 181.658 147.448 182.154 147.816C182.65 148.184 183.338 148.368 184.218 148.368ZM201.249 137.16C202.865 137.16 204.145 137.632 205.089 138.576C206.049 139.504 206.529 140.872 206.529 142.68V150H204.225V142.944C204.225 141.712 203.929 140.784 203.337 140.16C202.745 139.536 201.897 139.224 200.793 139.224C199.545 139.224 198.561 139.592 197.841 140.328C197.121 141.048 196.761 142.088 196.761 143.448V150H194.457V137.28H196.665V139.2C197.129 138.544 197.753 138.04 198.537 137.688C199.337 137.336 200.241 137.16 201.249 137.16ZM222.864 132.192V150H220.656V147.984C220.144 148.688 219.496 149.224 218.712 149.592C217.928 149.96 217.064 150.144 216.12 150.144C214.888 150.144 213.784 149.872 212.808 149.328C211.832 148.784 211.064 148.024 210.504 147.048C209.96 146.056 209.688 144.92 209.688 143.64C209.688 142.36 209.96 141.232 210.504 140.256C211.064 139.28 211.832 138.52 212.808 137.976C213.784 137.432 214.888 137.16 216.12 137.16C217.032 137.16 217.872 137.336 218.64 137.688C219.408 138.024 220.048 138.528 220.56 139.2V132.192H222.864ZM216.312 148.128C217.112 148.128 217.84 147.944 218.496 147.576C219.152 147.192 219.664 146.664 220.032 145.992C220.4 145.304 220.584 144.52 220.584 143.64C220.584 142.76 220.4 141.984 220.032 141.312C219.664 140.624 219.152 140.096 218.496 139.728C217.84 139.36 217.112 139.176 216.312 139.176C215.496 139.176 214.76 139.36 214.104 139.728C213.464 140.096 212.952 140.624 212.568 141.312C212.2 141.984 212.016 142.76 212.016 143.64C212.016 144.52 212.2 145.304 212.568 145.992C212.952 146.664 213.464 147.192 214.104 147.576C214.76 147.944 215.496 148.128 216.312 148.128ZM238.9 150.192C237.636 150.192 236.412 150 235.228 149.616C234.06 149.216 233.14 148.704 232.468 148.08L233.356 146.208C233.996 146.784 234.812 147.256 235.804 147.624C236.812 147.976 237.844 148.152 238.9 148.152C240.292 148.152 241.332 147.92 242.02 147.456C242.708 146.976 243.052 146.344 243.052 145.56C243.052 144.984 242.86 144.52 242.476 144.168C242.108 143.8 241.644 143.52 241.084 143.328C240.54 143.136 239.764 142.92 238.756 142.68C237.492 142.376 236.468 142.072 235.684 141.768C234.916 141.464 234.252 141 233.692 140.376C233.148 139.736 232.876 138.88 232.876 137.808C232.876 136.912 233.108 136.104 233.572 135.384C234.052 134.664 234.772 134.088 235.732 133.656C236.692 133.224 237.884 133.008 239.308 133.008C240.3 133.008 241.276 133.136 242.236 133.392C243.196 133.648 244.02 134.016 244.708 134.496L243.916 136.416C243.212 135.968 242.46 135.632 241.66 135.408C240.86 135.168 240.076 135.048 239.308 135.048C237.948 135.048 236.924 135.296 236.236 135.792C235.564 136.288 235.228 136.928 235.228 137.712C235.228 138.288 235.42 138.76 235.804 139.128C236.188 139.48 236.66 139.76 237.22 139.968C237.796 140.16 238.572 140.368 239.548 140.592C240.812 140.896 241.828 141.2 242.596 141.504C243.364 141.808 244.02 142.272 244.564 142.896C245.124 143.52 245.404 144.36 245.404 145.416C245.404 146.296 245.164 147.104 244.684 147.84C244.204 148.56 243.476 149.136 242.5 149.568C241.524 149.984 240.324 150.192 238.9 150.192ZM255.727 149.256C255.391 149.544 254.975 149.768 254.479 149.928C253.983 150.072 253.471 150.144 252.943 150.144C251.663 150.144 250.671 149.8 249.967 149.112C249.263 148.424 248.911 147.44 248.911 146.16V139.176H246.751V137.28H248.911V134.496H251.215V137.28H254.863V139.176H251.215V146.064C251.215 146.752 251.383 147.28 251.719 147.648C252.071 148.016 252.567 148.2 253.207 148.2C253.911 148.2 254.511 148 255.007 147.6L255.727 149.256ZM263.144 137.16C264.904 137.16 266.248 137.592 267.176 138.456C268.12 139.32 268.592 140.608 268.592 142.32V150H266.408V148.32C266.024 148.912 265.472 149.368 264.752 149.688C264.048 149.992 263.208 150.144 262.232 150.144C260.808 150.144 259.664 149.8 258.8 149.112C257.952 148.424 257.528 147.52 257.528 146.4C257.528 145.28 257.936 144.384 258.752 143.712C259.568 143.024 260.864 142.68 262.64 142.68H266.288V142.224C266.288 141.232 266 140.472 265.424 139.944C264.848 139.416 264 139.152 262.88 139.152C262.128 139.152 261.392 139.28 260.672 139.536C259.952 139.776 259.344 140.104 258.848 140.52L257.888 138.792C258.544 138.264 259.328 137.864 260.24 137.592C261.152 137.304 262.12 137.16 263.144 137.16ZM262.616 148.368C263.496 148.368 264.256 148.176 264.896 147.792C265.536 147.392 266 146.832 266.288 146.112V144.336H262.736C260.784 144.336 259.808 144.992 259.808 146.304C259.808 146.944 260.056 147.448 260.552 147.816C261.048 148.184 261.736 148.368 262.616 148.368ZM275.064 139.416C275.464 138.68 276.056 138.12 276.84 137.736C277.624 137.352 278.576 137.16 279.696 137.16V139.392C279.568 139.376 279.392 139.368 279.168 139.368C277.92 139.368 276.936 139.744 276.216 140.496C275.512 141.232 275.16 142.288 275.16 143.664V150H272.856V137.28H275.064V139.416ZM290.203 149.256C289.867 149.544 289.451 149.768 288.955 149.928C288.459 150.072 287.947 150.144 287.419 150.144C286.139 150.144 285.147 149.8 284.443 149.112C283.739 148.424 283.387 147.44 283.387 146.16V139.176H281.227V137.28H283.387V134.496H285.691V137.28H289.339V139.176H285.691V146.064C285.691 146.752 285.859 147.28 286.195 147.648C286.547 148.016 287.043 148.2 287.683 148.2C288.387 148.2 288.987 148 289.483 147.6L290.203 149.256ZM307.282 150.192C305.602 150.192 304.082 149.824 302.722 149.088C301.378 148.336 300.322 147.312 299.554 146.016C298.786 144.704 298.402 143.232 298.402 141.6C298.402 139.968 298.786 138.504 299.554 137.208C300.322 135.896 301.386 134.872 302.746 134.136C304.106 133.384 305.626 133.008 307.306 133.008C308.618 133.008 309.818 133.232 310.906 133.68C311.994 134.112 312.922 134.76 313.69 135.624L312.13 137.136C310.866 135.808 309.29 135.144 307.402 135.144C306.154 135.144 305.026 135.424 304.018 135.984C303.01 136.544 302.218 137.32 301.642 138.312C301.082 139.288 300.802 140.384 300.802 141.6C300.802 142.816 301.082 143.92 301.642 144.912C302.218 145.888 303.01 146.656 304.018 147.216C305.026 147.776 306.154 148.056 307.402 148.056C309.274 148.056 310.85 147.384 312.13 146.04L313.69 147.552C312.922 148.416 311.986 149.072 310.882 149.52C309.794 149.968 308.594 150.192 307.282 150.192ZM321.687 150.144C320.423 150.144 319.287 149.864 318.279 149.304C317.271 148.744 316.479 147.976 315.903 147C315.343 146.008 315.063 144.888 315.063 143.64C315.063 142.392 315.343 141.28 315.903 140.304C316.479 139.312 317.271 138.544 318.279 138C319.287 137.44 320.423 137.16 321.687 137.16C322.951 137.16 324.079 137.44 325.071 138C326.079 138.544 326.863 139.312 327.423 140.304C327.999 141.28 328.287 142.392 328.287 143.64C328.287 144.888 327.999 146.008 327.423 147C326.863 147.976 326.079 148.744 325.071 149.304C324.079 149.864 322.951 150.144 321.687 150.144ZM321.687 148.128C322.503 148.128 323.231 147.944 323.871 147.576C324.527 147.192 325.039 146.664 325.407 145.992C325.775 145.304 325.959 144.52 325.959 143.64C325.959 142.76 325.775 141.984 325.407 141.312C325.039 140.624 324.527 140.096 323.871 139.728C323.231 139.36 322.503 139.176 321.687 139.176C320.871 139.176 320.135 139.36 319.479 139.728C318.839 140.096 318.327 140.624 317.943 141.312C317.575 141.984 317.391 142.76 317.391 143.64C317.391 144.52 317.575 145.304 317.943 145.992C318.327 146.664 318.839 147.192 319.479 147.576C320.135 147.944 320.871 148.128 321.687 148.128ZM331.473 132.192H333.777V150H331.473V132.192ZM338.176 132.192H340.48V150H338.176V132.192ZM356.375 143.712C356.375 143.888 356.359 144.12 356.327 144.408H346.007C346.151 145.528 346.639 146.432 347.471 147.12C348.319 147.792 349.367 148.128 350.615 148.128C352.135 148.128 353.359 147.616 354.287 146.592L355.559 148.08C354.983 148.752 354.263 149.264 353.399 149.616C352.551 149.968 351.599 150.144 350.543 150.144C349.199 150.144 348.007 149.872 346.967 149.328C345.927 148.768 345.119 147.992 344.543 147C343.983 146.008 343.703 144.888 343.703 143.64C343.703 142.408 343.975 141.296 344.519 140.304C345.079 139.312 345.839 138.544 346.799 138C347.775 137.44 348.871 137.16 350.087 137.16C351.303 137.16 352.383 137.44 353.327 138C354.287 138.544 355.031 139.312 355.559 140.304C356.103 141.296 356.375 142.432 356.375 143.712ZM350.087 139.104C348.983 139.104 348.055 139.44 347.303 140.112C346.567 140.784 346.135 141.664 346.007 142.752H354.167C354.039 141.68 353.599 140.808 352.847 140.136C352.111 139.448 351.191 139.104 350.087 139.104ZM365.119 150.144C363.823 150.144 362.663 149.864 361.639 149.304C360.631 148.744 359.839 147.976 359.263 147C358.687 146.008 358.399 144.888 358.399 143.64C358.399 142.392 358.687 141.28 359.263 140.304C359.839 139.312 360.631 138.544 361.639 138C362.663 137.44 363.823 137.16 365.119 137.16C366.271 137.16 367.295 137.392 368.191 137.856C369.103 138.32 369.807 138.992 370.303 139.872L368.551 141C368.151 140.392 367.655 139.936 367.063 139.632C366.471 139.328 365.815 139.176 365.095 139.176C364.263 139.176 363.511 139.36 362.839 139.728C362.183 140.096 361.663 140.624 361.279 141.312C360.911 141.984 360.727 142.76 360.727 143.64C360.727 144.536 360.911 145.328 361.279 146.016C361.663 146.688 362.183 147.208 362.839 147.576C363.511 147.944 364.263 148.128 365.095 148.128C365.815 148.128 366.471 147.976 367.063 147.672C367.655 147.368 368.151 146.912 368.551 146.304L370.303 147.408C369.807 148.288 369.103 148.968 368.191 149.448C367.295 149.912 366.271 150.144 365.119 150.144ZM380.602 149.256C380.266 149.544 379.85 149.768 379.354 149.928C378.858 150.072 378.346 150.144 377.818 150.144C376.538 150.144 375.546 149.8 374.842 149.112C374.138 148.424 373.786 147.44 373.786 146.16V139.176H371.626V137.28H373.786V134.496H376.09V137.28H379.738V139.176H376.09V146.064C376.09 146.752 376.258 147.28 376.594 147.648C376.946 148.016 377.442 148.2 378.082 148.2C378.786 148.2 379.386 148 379.882 147.6L380.602 149.256ZM383.387 137.28H385.691V150H383.387V137.28ZM384.539 134.832C384.091 134.832 383.715 134.688 383.411 134.4C383.123 134.112 382.979 133.76 382.979 133.344C382.979 132.928 383.123 132.576 383.411 132.288C383.715 131.984 384.091 131.832 384.539 131.832C384.987 131.832 385.355 131.976 385.643 132.264C385.947 132.536 386.099 132.88 386.099 133.296C386.099 133.728 385.947 134.096 385.643 134.4C385.355 134.688 384.987 134.832 384.539 134.832ZM396.882 137.16C398.498 137.16 399.778 137.632 400.722 138.576C401.682 139.504 402.162 140.872 402.162 142.68V150H399.858V142.944C399.858 141.712 399.562 140.784 398.97 140.16C398.378 139.536 397.53 139.224 396.426 139.224C395.178 139.224 394.194 139.592 393.474 140.328C392.754 141.048 392.394 142.088 392.394 143.448V150H390.09V137.28H392.298V139.2C392.762 138.544 393.386 138.04 394.17 137.688C394.97 137.336 395.874 137.16 396.882 137.16ZM418.665 137.28V148.272C418.665 150.496 418.113 152.136 417.009 153.192C415.905 154.264 414.257 154.8 412.065 154.8C410.865 154.8 409.721 154.632 408.633 154.296C407.545 153.976 406.665 153.512 405.993 152.904L407.097 151.128C407.689 151.64 408.417 152.04 409.281 152.328C410.161 152.632 411.065 152.784 411.993 152.784C413.481 152.784 414.577 152.432 415.281 151.728C416.001 151.024 416.361 149.952 416.361 148.512V147.504C415.817 148.16 415.145 148.656 414.345 148.992C413.561 149.312 412.705 149.472 411.777 149.472C410.561 149.472 409.457 149.216 408.465 148.704C407.489 148.176 406.721 147.448 406.161 146.52C405.601 145.576 405.321 144.504 405.321 143.304C405.321 142.104 405.601 141.04 406.161 140.112C406.721 139.168 407.489 138.44 408.465 137.928C409.457 137.416 410.561 137.16 411.777 137.16C412.737 137.16 413.625 137.336 414.441 137.688C415.273 138.04 415.953 138.56 416.481 139.248V137.28H418.665ZM412.041 147.456C412.873 147.456 413.617 147.28 414.273 146.928C414.945 146.576 415.465 146.088 415.833 145.464C416.217 144.824 416.409 144.104 416.409 143.304C416.409 142.072 416.001 141.08 415.185 140.328C414.369 139.56 413.321 139.176 412.041 139.176C410.745 139.176 409.689 139.56 408.873 140.328C408.057 141.08 407.649 142.072 407.649 143.304C407.649 144.104 407.833 144.824 408.201 145.464C408.585 146.088 409.105 146.576 409.761 146.928C410.433 147.28 411.193 147.456 412.041 147.456ZM429.848 133.2H436.928C438.704 133.2 440.28 133.552 441.656 134.256C443.032 134.96 444.096 135.952 444.848 137.232C445.616 138.496 446 139.952 446 141.6C446 143.248 445.616 144.712 444.848 145.992C444.096 147.256 443.032 148.24 441.656 148.944C440.28 149.648 438.704 150 436.928 150H429.848V133.2ZM436.784 147.912C438.144 147.912 439.336 147.648 440.36 147.12C441.4 146.592 442.2 145.856 442.76 144.912C443.32 143.952 443.6 142.848 443.6 141.6C443.6 140.352 443.32 139.256 442.76 138.312C442.2 137.352 441.4 136.608 440.36 136.08C439.336 135.552 438.144 135.288 436.784 135.288H432.248V147.912H436.784ZM453.972 137.16C455.732 137.16 457.076 137.592 458.004 138.456C458.948 139.32 459.42 140.608 459.42 142.32V150H457.236V148.32C456.852 148.912 456.3 149.368 455.58 149.688C454.876 149.992 454.036 150.144 453.06 150.144C451.636 150.144 450.492 149.8 449.628 149.112C448.78 148.424 448.356 147.52 448.356 146.4C448.356 145.28 448.764 144.384 449.58 143.712C450.396 143.024 451.692 142.68 453.468 142.68H457.116V142.224C457.116 141.232 456.828 140.472 456.252 139.944C455.676 139.416 454.828 139.152 453.708 139.152C452.956 139.152 452.22 139.28 451.5 139.536C450.78 139.776 450.172 140.104 449.676 140.52L448.716 138.792C449.372 138.264 450.156 137.864 451.068 137.592C451.98 137.304 452.948 137.16 453.972 137.16ZM453.444 148.368C454.324 148.368 455.084 148.176 455.724 147.792C456.364 147.392 456.828 146.832 457.116 146.112V144.336H453.564C451.612 144.336 450.636 144.992 450.636 146.304C450.636 146.944 450.884 147.448 451.38 147.816C451.876 148.184 452.564 148.368 453.444 148.368ZM470.836 149.256C470.5 149.544 470.084 149.768 469.588 149.928C469.092 150.072 468.58 150.144 468.052 150.144C466.772 150.144 465.78 149.8 465.076 149.112C464.372 148.424 464.02 147.44 464.02 146.16V139.176H461.86V137.28H464.02V134.496H466.324V137.28H469.972V139.176H466.324V146.064C466.324 146.752 466.492 147.28 466.828 147.648C467.18 148.016 467.676 148.2 468.316 148.2C469.02 148.2 469.62 148 470.116 147.6L470.836 149.256ZM478.254 137.16C480.014 137.16 481.358 137.592 482.286 138.456C483.23 139.32 483.702 140.608 483.702 142.32V150H481.518V148.32C481.134 148.912 480.582 149.368 479.862 149.688C479.158 149.992 478.318 150.144 477.342 150.144C475.918 150.144 474.774 149.8 473.91 149.112C473.062 148.424 472.638 147.52 472.638 146.4C472.638 145.28 473.046 144.384 473.862 143.712C474.678 143.024 475.974 142.68 477.75 142.68H481.398V142.224C481.398 141.232 481.11 140.472 480.534 139.944C479.958 139.416 479.11 139.152 477.99 139.152C477.238 139.152 476.502 139.28 475.782 139.536C475.062 139.776 474.454 140.104 473.958 140.52L472.998 138.792C473.654 138.264 474.438 137.864 475.35 137.592C476.262 137.304 477.23 137.16 478.254 137.16ZM477.726 148.368C478.606 148.368 479.366 148.176 480.006 147.792C480.646 147.392 481.11 146.832 481.398 146.112V144.336H477.846C475.894 144.336 474.918 144.992 474.918 146.304C474.918 146.944 475.166 147.448 475.662 147.816C476.158 148.184 476.846 148.368 477.726 148.368ZM84.16 261.504H86.464V268.056C85.632 268.744 84.664 269.272 83.56 269.64C82.456 270.008 81.304 270.192 80.104 270.192C78.408 270.192 76.88 269.824 75.52 269.088C74.16 268.336 73.088 267.312 72.304 266.016C71.536 264.704 71.152 263.232 71.152 261.6C71.152 259.968 71.536 258.496 72.304 257.184C73.088 255.872 74.16 254.848 75.52 254.112C76.896 253.376 78.44 253.008 80.152 253.008C81.496 253.008 82.712 253.232 83.8 253.68C84.904 254.112 85.84 254.752 86.608 255.6L85.12 257.088C83.776 255.792 82.152 255.144 80.248 255.144C78.968 255.144 77.816 255.424 76.792 255.984C75.784 256.528 74.992 257.296 74.416 258.288C73.84 259.264 73.552 260.368 73.552 261.6C73.552 262.816 73.84 263.92 74.416 264.912C74.992 265.888 75.784 266.656 76.792 267.216C77.816 267.776 78.96 268.056 80.224 268.056C81.728 268.056 83.04 267.696 84.16 266.976V261.504ZM102.219 263.712C102.219 263.888 102.203 264.12 102.171 264.408H91.8511C91.9951 265.528 92.4831 266.432 93.3151 267.12C94.1631 267.792 95.2111 268.128 96.4591 268.128C97.9791 268.128 99.2031 267.616 100.131 266.592L101.403 268.08C100.827 268.752 100.107 269.264 99.2431 269.616C98.3951 269.968 97.4431 270.144 96.3871 270.144C95.0431 270.144 93.8511 269.872 92.8111 269.328C91.7711 268.768 90.9631 267.992 90.3871 267C89.8271 266.008 89.5471 264.888 89.5471 263.64C89.5471 262.408 89.8191 261.296 90.3631 260.304C90.9231 259.312 91.6831 258.544 92.6431 258C93.6191 257.44 94.7151 257.16 95.9311 257.16C97.1471 257.16 98.2271 257.44 99.1711 258C100.131 258.544 100.875 259.312 101.403 260.304C101.947 261.296 102.219 262.432 102.219 263.712ZM95.9311 259.104C94.8271 259.104 93.8991 259.44 93.1471 260.112C92.4111 260.784 91.9791 261.664 91.8511 262.752H100.011C99.8831 261.68 99.4431 260.808 98.6911 260.136C97.9551 259.448 97.0351 259.104 95.9311 259.104ZM112.57 269.256C112.234 269.544 111.818 269.768 111.322 269.928C110.826 270.072 110.314 270.144 109.786 270.144C108.506 270.144 107.514 269.8 106.81 269.112C106.106 268.424 105.754 267.44 105.754 266.16V259.176H103.594V257.28H105.754V254.496H108.058V257.28H111.706V259.176H108.058V266.064C108.058 266.752 108.226 267.28 108.562 267.648C108.914 268.016 109.41 268.2 110.05 268.2C110.754 268.2 111.354 268 111.85 267.6L112.57 269.256ZM128.545 257.16C129.777 257.16 130.881 257.432 131.857 257.976C132.833 258.52 133.593 259.28 134.137 260.256C134.697 261.232 134.977 262.36 134.977 263.64C134.977 264.92 134.697 266.056 134.137 267.048C133.593 268.024 132.833 268.784 131.857 269.328C130.881 269.872 129.777 270.144 128.545 270.144C127.633 270.144 126.793 269.968 126.025 269.616C125.273 269.264 124.633 268.752 124.105 268.08V274.656H121.801V257.28H124.009V259.296C124.521 258.592 125.169 258.064 125.953 257.712C126.737 257.344 127.601 257.16 128.545 257.16ZM128.353 268.128C129.169 268.128 129.897 267.944 130.537 267.576C131.193 267.192 131.705 266.664 132.073 265.992C132.457 265.304 132.649 264.52 132.649 263.64C132.649 262.76 132.457 261.984 132.073 261.312C131.705 260.624 131.193 260.096 130.537 259.728C129.897 259.36 129.169 259.176 128.353 259.176C127.553 259.176 126.825 259.368 126.169 259.752C125.529 260.12 125.017 260.64 124.633 261.312C124.265 261.984 124.081 262.76 124.081 263.64C124.081 264.52 124.265 265.304 124.633 265.992C125.001 266.664 125.513 267.192 126.169 267.576C126.825 267.944 127.553 268.128 128.353 268.128ZM142.675 257.16C144.435 257.16 145.779 257.592 146.707 258.456C147.651 259.32 148.123 260.608 148.123 262.32V270H145.939V268.32C145.555 268.912 145.003 269.368 144.283 269.688C143.579 269.992 142.739 270.144 141.763 270.144C140.339 270.144 139.195 269.8 138.331 269.112C137.483 268.424 137.059 267.52 137.059 266.4C137.059 265.28 137.467 264.384 138.283 263.712C139.099 263.024 140.395 262.68 142.171 262.68H145.819V262.224C145.819 261.232 145.531 260.472 144.955 259.944C144.379 259.416 143.531 259.152 142.411 259.152C141.659 259.152 140.923 259.28 140.203 259.536C139.483 259.776 138.875 260.104 138.379 260.52L137.419 258.792C138.075 258.264 138.859 257.864 139.771 257.592C140.683 257.304 141.651 257.16 142.675 257.16ZM142.147 268.368C143.027 268.368 143.787 268.176 144.427 267.792C145.067 267.392 145.531 266.832 145.819 266.112V264.336H142.267C140.315 264.336 139.339 264.992 139.339 266.304C139.339 266.944 139.587 267.448 140.083 267.816C140.579 268.184 141.267 268.368 142.147 268.368ZM152.387 257.28H154.691V270H152.387V257.28ZM153.539 254.832C153.091 254.832 152.715 254.688 152.411 254.4C152.123 254.112 151.979 253.76 151.979 253.344C151.979 252.928 152.123 252.576 152.411 252.288C152.715 251.984 153.091 251.832 153.539 251.832C153.987 251.832 154.355 251.976 154.643 252.264C154.947 252.536 155.099 252.88 155.099 253.296C155.099 253.728 154.947 254.096 154.643 254.4C154.355 254.688 153.987 254.832 153.539 254.832ZM171.09 252.192V270H168.882V267.984C168.37 268.688 167.722 269.224 166.938 269.592C166.154 269.96 165.29 270.144 164.346 270.144C163.114 270.144 162.01 269.872 161.034 269.328C160.058 268.784 159.29 268.024 158.73 267.048C158.186 266.056 157.914 264.92 157.914 263.64C157.914 262.36 158.186 261.232 158.73 260.256C159.29 259.28 160.058 258.52 161.034 257.976C162.01 257.432 163.114 257.16 164.346 257.16C165.258 257.16 166.098 257.336 166.866 257.688C167.634 258.024 168.274 258.528 168.786 259.2V252.192H171.09ZM164.538 268.128C165.338 268.128 166.066 267.944 166.722 267.576C167.378 267.192 167.89 266.664 168.258 265.992C168.626 265.304 168.81 264.52 168.81 263.64C168.81 262.76 168.626 261.984 168.258 261.312C167.89 260.624 167.378 260.096 166.722 259.728C166.066 259.36 165.338 259.176 164.538 259.176C163.722 259.176 162.986 259.36 162.33 259.728C161.69 260.096 161.178 260.624 160.794 261.312C160.426 261.984 160.242 262.76 160.242 263.64C160.242 264.52 160.426 265.304 160.794 265.992C161.178 266.664 161.69 267.192 162.33 267.576C162.986 267.944 163.722 268.128 164.538 268.128Z" fill="#333333"/>
</svg>
